{
	"asset":{
		"generator":"Khronos glTF Blender I/O v4.1.63",
		"version":"2.0"
	},
	"extensionsUsed":[
		"KHR_materials_specular",
		"KHR_materials_anisotropy",
		"KHR_materials_ior"
	],
	"scene":0,
	"scenes":[
		{
			"name":"Scene",
			"nodes":[
				0,
				1,
				2,
				3,
				4,
				5,
				6,
				7,
				8,
				9,
				10
			]
		}
	],
	"nodes":[
		{
			"mesh":0,
			"name":"WTE8-M-LOCKING-TUBE-500",
			"rotation":[
				0,
				-1,
				0,
				1.6292069915380125e-07
			],
			"scale":[
				0.0009999992325901985,
				0.0009999992325901985,
				0.0009999992325901985
			],
			"translation":[
				-0.006058752536773682,
				-0.01160643994808197,
				4.014513251604512e-05
			]
		},
		{
			"mesh":1,
			"name":"WTE5-DOME",
			"rotation":[
				0,
				-0.7071068286895752,
				0,
				0.7071068286895752
			],
			"scale":[
				1.5422179698944092,
				1.5422179698944092,
				1.5422179698944092
			],
			"translation":[
				0.20495127141475677,
				0,
				4.012668432551436e-05
			]
		},
		{
			"mesh":2,
			"name":"WTE6-M-FLANGE-SEAL-R1",
			"rotation":[
				0,
				-1,
				0,
				1.6292068494294654e-07
			],
			"scale":[
				1.2913907766342163,
				1.2913907766342163,
				1.2913907766342163
			],
			"translation":[
				0.16641169786453247,
				0,
				4.013005309388973e-05
			]
		},
		{
			"mesh":3,
			"name":"WTE8-END-CAP-5xM10-5xM14",
			"rotation":[
				-0.7071068286895752,
				-0.7071068286895752,
				0,
				1.1520233300643667e-07
			],
			"translation":[
				-0.18750286102294922,
				0,
				4.016099410364404e-05
			]
		},
		{
			"mesh":4,
			"name":"BezierCurve",
			"rotation":[
				0,
				-1,
				0,
				1.6292068494294654e-07
			],
			"translation":[
				-0.006058752536773682,
				0,
				4.014513251604512e-05
			]
		},
		{
			"mesh":5,
			"name":"LUMEN-ASM-R3-PUBLIC.004",
			"rotation":[
				0.21042202413082123,
				-0.9776106476783752,
				0,
				5.198876920076145e-07
			],
			"translation":[
				0.35612785816192627,
				0.12827607989311218,
				2.840088427547016e-06
			]
		},
		{
			"mesh":6,
			"name":"Plane",
			"rotation":[
				0.07661068439483643,
				-0.7029443979263306,
				-0.7029443383216858,
				0.07661107182502747
			],
			"scale":[
				-0.08811905980110168,
				-0.08811905980110168,
				-0.08811905980110168
			],
			"translation":[
				-0.14818227291107178,
				0.12556111812591553,
				0.002904928056523204
			]
		},
		{
			"mesh":7,
			"name":"Plane.002",
			"rotation":[
				0.8055679798126221,
				0.2252688854932785,
				0.0164936650544405,
				0.5477612018585205
			],
			"scale":[
				0.08225356787443161,
				0.0822535827755928,
				0.08225357532501221
			],
			"translation":[
				0.002482231706380844,
				-0.07103820145130157,
				0.10756152123212814
			]
		},
		{
			"mesh":8,
			"name":"PUB-BR-101303-003_RevC",
			"rotation":[
				0.5,
				-0.5,
				-0.5,
				0.5000000596046448
			],
			"scale":[
				0.003025809535756707,
				0.003025809535756707,
				0.003025809535756707
			],
			"translation":[
				-0.32227399945259094,
				-0.0022969450801610947,
				0.0009170025587081909
			]
		},
		{
			"mesh":9,
			"name":"Cylinder.005",
			"rotation":[
				0.7550734877586365,
				0.050167378038167953,
				0.3129996657371521,
				0.5739150643348694
			],
			"scale":[
				0.06347379833459854,
				0.19042141735553741,
				0.06347379833459854
			],
			"translation":[
				0.16111424565315247,
				0.06739084422588348,
				0.08844764530658722
			]
		},
		{
			"mesh":10,
			"name":"Cylinder.001",
			"rotation":[
				0.7550734877586365,
				0.050167378038167953,
				0.3129996657371521,
				0.5739150643348694
			],
			"scale":[
				0.06347379833459854,
				0.19042141735553741,
				0.06347379833459854
			],
			"translation":[
				0.16111424565315247,
				0.06739084422588348,
				0.08844764530658722
			]
		}
	],
	"materials":[
		{
			"doubleSided":true,
			"name":"Material.001",
			"pbrMetallicRoughness":{
				"baseColorFactor":[
					0.045372504740953445,
					0.045372504740953445,
					0.045372504740953445,
					1
				],
				"metallicFactor":0,
				"roughnessFactor":0.7673267126083374
			}
		},
		{
			"alphaMode":"BLEND",
			"doubleSided":true,
			"name":"Material",
			"pbrMetallicRoughness":{
				"baseColorFactor":[
					0.2734711468219757,
					0.2734711468219757,
					0.2734711468219757,
					0.22772276401519775
				],
				"roughnessFactor":0.5
			}
		},
		{
			"doubleSided":true,
			"name":"Material.002",
			"pbrMetallicRoughness":{
				"baseColorFactor":[
					0.7999992966651917,
					0.7573058009147644,
					0.015674851834774017,
					1
				],
				"metallicFactor":0,
				"roughnessFactor":0.5
			}
		},
		{
			"doubleSided":true,
			"name":"Material.004",
			"pbrMetallicRoughness":{
				"baseColorFactor":[
					0.03700964152812958,
					0.18977433443069458,
					0.7999992966651917,
					1
				],
				"metallicFactor":0,
				"roughnessFactor":0.5
			}
		},
		{
			"doubleSided":true,
			"name":"Material.003",
			"pbrMetallicRoughness":{
				"baseColorFactor":[
					0.4668204188346863,
					0.4668204188346863,
					0.4668204188346863,
					1
				],
				"metallicFactor":0.6138613820075989,
				"roughnessFactor":0.5
			}
		},
		{
			"doubleSided":true,
			"name":"Material.009",
			"pbrMetallicRoughness":{
				"baseColorFactor":[
					0.800000011920929,
					0.800000011920929,
					0.800000011920929,
					1
				],
				"metallicFactor":0,
				"roughnessFactor":0.5
			}
		},
		{
			"doubleSided":true,
			"name":"Material.005",
			"pbrMetallicRoughness":{
				"baseColorTexture":{
					"index":0
				},
				"metallicFactor":0,
				"roughnessFactor":0.5
			}
		},
		{
			"doubleSided":true,
			"name":"Material.007",
			"pbrMetallicRoughness":{
				"baseColorTexture":{
					"index":1
				},
				"metallicFactor":0,
				"roughnessFactor":0.5
			}
		},
		{
			"doubleSided":true,
			"name":"Material.008",
			"pbrMetallicRoughness":{
				"baseColorFactor":[
					0.3520112931728363,
					0.3520112931728363,
					0.3520112931728363,
					1
				],
				"metallicFactor":0.8811880946159363,
				"roughnessFactor":0.5
			}
		},
		{
			"doubleSided":true,
			"name":"black metal.001",
			"pbrMetallicRoughness":{
				"baseColorFactor":[
					0.043273989111185074,
					0.043273989111185074,
					0.043273989111185074,
					1
				],
				"metallicFactor":0,
				"roughnessFactor":0.5
			}
		},
		{
			"doubleSided":true,
			"extensions":{
				"KHR_materials_specular":{
					"specularColorFactor":[
						2.0,
						2.0,
						2.0
					]
				},
				"KHR_materials_anisotropy":{
					"anisotropyStrength":0.9603960514068604
				},
				"KHR_materials_ior":{
					"ior":1.4500000476837158
				}
			},
			"name":"Material.011",
			"pbrMetallicRoughness":{
				"metallicFactor":0.2574257552623749,
				"roughnessFactor":0.5
			}
		},
		{
			"doubleSided":true,
			"name":"black metal.027",
			"pbrMetallicRoughness":{
				"baseColorFactor":[
					0.043273989111185074,
					0.043273989111185074,
					0.043273989111185074,
					1
				],
				"metallicFactor":0,
				"roughnessFactor":0.5
			}
		},
		{
			"doubleSided":true,
			"extensions":{
				"KHR_materials_specular":{
					"specularColorFactor":[
						2.0,
						2.0,
						2.0
					]
				},
				"KHR_materials_anisotropy":{
					"anisotropyStrength":0.9603960514068604
				},
				"KHR_materials_ior":{
					"ior":1.4500000476837158
				}
			},
			"name":"Material.035",
			"pbrMetallicRoughness":{
				"metallicFactor":0.2574257552623749,
				"roughnessFactor":0.5
			}
		}
	],
	"meshes":[
		{
			"name":"WTE8-M-LOCKING-TUBE-500",
			"primitives":[
				{
					"attributes":{
						"POSITION":0,
						"NORMAL":1
					},
					"indices":2,
					"material":0
				}
			]
		},
		{
			"name":"WTE5-DOME",
			"primitives":[
				{
					"attributes":{
						"POSITION":3,
						"NORMAL":4
					},
					"indices":5,
					"material":1
				}
			]
		},
		{
			"name":"WTE6-M-FLANGE-SEAL-R1",
			"primitives":[
				{
					"attributes":{
						"POSITION":6,
						"NORMAL":7
					},
					"indices":8,
					"material":0
				}
			]
		},
		{
			"name":"WTE8-END-CAP-5xM10-5xM14",
			"primitives":[
				{
					"attributes":{
						"POSITION":9,
						"NORMAL":10
					},
					"indices":11,
					"material":0
				}
			]
		},
		{
			"name":"BezierCurve",
			"primitives":[
				{
					"attributes":{
						"POSITION":12,
						"NORMAL":13,
						"TEXCOORD_0":14,
						"TANGENT":15
					},
					"indices":16,
					"material":2
				}
			]
		},
		{
			"name":"LUMEN-ASM-R3-PUBLIC.004",
			"primitives":[
				{
					"attributes":{
						"POSITION":17,
						"NORMAL":18
					},
					"indices":19,
					"material":0
				},
				{
					"attributes":{
						"POSITION":20,
						"NORMAL":21
					},
					"indices":22,
					"material":3
				},
				{
					"attributes":{
						"POSITION":23,
						"NORMAL":24
					},
					"indices":25,
					"material":4
				},
				{
					"attributes":{
						"POSITION":26,
						"NORMAL":27
					},
					"indices":28,
					"material":5
				}
			]
		},
		{
			"name":"Plane",
			"primitives":[
				{
					"attributes":{
						"POSITION":29,
						"NORMAL":30,
						"TEXCOORD_0":31,
						"TANGENT":32
					},
					"indices":33,
					"material":6
				}
			]
		},
		{
			"name":"Plane.002",
			"primitives":[
				{
					"attributes":{
						"POSITION":34,
						"NORMAL":35,
						"TEXCOORD_0":36
					},
					"indices":37,
					"material":7
				}
			]
		},
		{
			"name":"PUB-BR-101303-003_RevC",
			"primitives":[
				{
					"attributes":{
						"POSITION":38,
						"NORMAL":39
					},
					"indices":40,
					"material":8
				}
			]
		},
		{
			"name":"Cylinder.005",
			"primitives":[
				{
					"attributes":{
						"POSITION":41,
						"NORMAL":42,
						"TEXCOORD_0":43
					},
					"indices":44,
					"material":9
				},
				{
					"attributes":{
						"POSITION":45,
						"NORMAL":46,
						"TEXCOORD_0":47
					},
					"indices":48,
					"material":10
				}
			]
		},
		{
			"name":"Cylinder.003",
			"primitives":[
				{
					"attributes":{
						"POSITION":49,
						"NORMAL":50,
						"TEXCOORD_0":51
					},
					"indices":52,
					"material":11
				},
				{
					"attributes":{
						"POSITION":53,
						"NORMAL":54,
						"TEXCOORD_0":55
					},
					"indices":56,
					"material":12
				}
			]
		}
	],
	"textures":[
		{
			"sampler":0,
			"source":0
		},
		{
			"sampler":0,
			"source":1
		}
	],
	"images":[
		{
			"mimeType":"image/png",
			"name":"image (1).png",
			"uri":"../../blender_sources/textures/image%20%281%29.png"
		},
		{
			"mimeType":"image/jpeg",
			"name":"1708727361654.jpeg",
			"uri":"../../blender_sources/textures/1708727361654.jpeg"
		}
	],
	"accessors":[
		{
			"bufferView":0,
			"componentType":5126,
			"count":65900,
			"max":[
				178.01776123046875,
				118.49598693847656,
				107.09292602539062
			],
			"min":[
				-178.24795532226562,
				-95.70401763916016,
				-107.10484313964844
			],
			"type":"VEC3"
		},
		{
			"bufferView":1,
			"componentType":5126,
			"count":65900,
			"type":"VEC3"
		},
		{
			"bufferView":2,
			"componentType":5125,
			"count":71772,
			"type":"SCALAR"
		},
		{
			"bufferView":3,
			"componentType":5126,
			"count":32314,
			"max":[
				0.06386714428663254,
				0.063828244805336,
				0.0251312218606472
			],
			"min":[
				-0.06388285011053085,
				-0.0638280138373375,
				-0.03536878153681755
			],
			"type":"VEC3"
		},
		{
			"bufferView":4,
			"componentType":5126,
			"count":32314,
			"type":"VEC3"
		},
		{
			"bufferView":5,
			"componentType":5123,
			"count":44508,
			"type":"SCALAR"
		},
		{
			"bufferView":6,
			"componentType":5126,
			"count":14420,
			"max":[
				0.030484389513731003,
				0.08246768265962601,
				0.08251896500587463
			],
			"min":[
				-0.010515612550079823,
				-0.08263231068849564,
				-0.08258102834224701
			],
			"type":"VEC3"
		},
		{
			"bufferView":7,
			"componentType":5126,
			"count":14420,
			"type":"VEC3"
		},
		{
			"bufferView":8,
			"componentType":5123,
			"count":21942,
			"type":"SCALAR"
		},
		{
			"bufferView":9,
			"componentType":5126,
			"count":211249,
			"max":[
				0.11277914047241211,
				0.01092388667166233,
				0.10784409195184708
			],
			"min":[
				-0.11278337985277176,
				-0.005076114553958178,
				-0.10785593092441559
			],
			"type":"VEC3"
		},
		{
			"bufferView":10,
			"componentType":5126,
			"count":211249,
			"type":"VEC3"
		},
		{
			"bufferView":11,
			"componentType":5125,
			"count":248916,
			"type":"SCALAR"
		},
		{
			"bufferView":12,
			"componentType":5126,
			"count":209,
			"max":[
				-0.03771504387259483,
				0.2560062110424042,
				0.017013315111398697
			],
			"min":[
				-0.3586469888687134,
				0.09395022690296173,
				-0.0035252226516604424
			],
			"type":"VEC3"
		},
		{
			"bufferView":13,
			"componentType":5126,
			"count":209,
			"type":"VEC3"
		},
		{
			"bufferView":14,
			"componentType":5126,
			"count":209,
			"type":"VEC2"
		},
		{
			"bufferView":15,
			"componentType":5126,
			"count":209,
			"type":"VEC4"
		},
		{
			"bufferView":16,
			"componentType":5123,
			"count":1080,
			"type":"SCALAR"
		},
		{
			"bufferView":17,
			"componentType":5126,
			"count":18984,
			"max":[
				0.018527856096625328,
				0.01811937615275383,
				0.018626749515533447
			],
			"min":[
				-0.019956665113568306,
				-0.027380626648664474,
				-0.018372178077697754
			],
			"type":"VEC3"
		},
		{
			"bufferView":18,
			"componentType":5126,
			"count":18984,
			"type":"VEC3"
		},
		{
			"bufferView":19,
			"componentType":5123,
			"count":28578,
			"type":"SCALAR"
		},
		{
			"bufferView":20,
			"componentType":5126,
			"count":102749,
			"max":[
				0.006528126075863838,
				0.041619379073381424,
				0.01412692666053772
			],
			"min":[
				-0.006471395492553711,
				0.017134450376033783,
				-0.013872534036636353
			],
			"type":"VEC3"
		},
		{
			"bufferView":21,
			"componentType":5126,
			"count":102749,
			"type":"VEC3"
		},
		{
			"bufferView":22,
			"componentType":5125,
			"count":116436,
			"type":"SCALAR"
		},
		{
			"bufferView":23,
			"componentType":5126,
			"count":34478,
			"max":[
				0.013915257528424263,
				-0.02882595919072628,
				0.014014065265655518
			],
			"min":[
				-0.013858464546501637,
				-0.03288062661886215,
				-0.013759583234786987
			],
			"type":"VEC3"
		},
		{
			"bufferView":24,
			"componentType":5126,
			"count":34478,
			"type":"VEC3"
		},
		{
			"bufferView":25,
			"componentType":5123,
			"count":39075,
			"type":"SCALAR"
		},
		{
			"bufferView":26,
			"componentType":5126,
			"count":55412,
			"max":[
				0.018526477739214897,
				-0.027380626648664474,
				0.018625348806381226
			],
			"min":[
				-0.01846974901854992,
				-0.03677491843700409,
				-0.018370896577835083
			],
			"type":"VEC3"
		},
		{
			"bufferView":27,
			"componentType":5126,
			"count":55412,
			"type":"VEC3"
		},
		{
			"bufferView":28,
			"componentType":5123,
			"count":64818,
			"type":"SCALAR"
		},
		{
			"bufferView":29,
			"componentType":5126,
			"count":3,
			"max":[
				0.6968827247619629,
				0,
				0.37316930294036865
			],
			"min":[
				-0.5739911794662476,
				0,
				-0.5320284366607666
			],
			"type":"VEC3"
		},
		{
			"bufferView":30,
			"componentType":5126,
			"count":3,
			"type":"VEC3"
		},
		{
			"bufferView":31,
			"componentType":5126,
			"count":3,
			"type":"VEC2"
		},
		{
			"bufferView":32,
			"componentType":5126,
			"count":3,
			"type":"VEC4"
		},
		{
			"bufferView":33,
			"componentType":5123,
			"count":3,
			"type":"SCALAR"
		},
		{
			"bufferView":34,
			"componentType":5126,
			"count":26,
			"max":[
				1,
				0.0026614777743816376,
				0.4742389917373657
			],
			"min":[
				-0.9567947387695312,
				-0.27248498797416687,
				-1.2211670875549316
			],
			"type":"VEC3"
		},
		{
			"bufferView":35,
			"componentType":5126,
			"count":26,
			"type":"VEC3"
		},
		{
			"bufferView":36,
			"componentType":5126,
			"count":26,
			"type":"VEC2"
		},
		{
			"bufferView":37,
			"componentType":5123,
			"count":42,
			"type":"SCALAR"
		},
		{
			"bufferView":38,
			"componentType":5126,
			"count":26335,
			"max":[
				54.9163818359375,
				21.41507339477539,
				26.951351165771484
			],
			"min":[
				-54.92572784423828,
				-21.326601028442383,
				-41.048648834228516
			],
			"type":"VEC3"
		},
		{
			"bufferView":39,
			"componentType":5126,
			"count":26335,
			"type":"VEC3"
		},
		{
			"bufferView":40,
			"componentType":5123,
			"count":158046,
			"type":"SCALAR"
		},
		{
			"bufferView":41,
			"componentType":5126,
			"count":130,
			"max":[
				-1.0498661994934082,
				-0.8070967793464661,
				0.5151775479316711
			],
			"min":[
				-1.1990536451339722,
				-0.8393476009368896,
				0.3658245801925659
			],
			"type":"VEC3"
		},
		{
			"bufferView":42,
			"componentType":5126,
			"count":130,
			"type":"VEC3"
		},
		{
			"bufferView":43,
			"componentType":5126,
			"count":130,
			"type":"VEC2"
		},
		{
			"bufferView":44,
			"componentType":5123,
			"count":372,
			"type":"SCALAR"
		},
		{
			"bufferView":45,
			"componentType":5126,
			"count":196,
			"max":[
				-0.9784104228019714,
				-0.7897419929504395,
				0.5544797778129578
			],
			"min":[
				-1.3242948055267334,
				-0.845546305179596,
				0.18824513256549835
			],
			"type":"VEC3"
		},
		{
			"bufferView":46,
			"componentType":5126,
			"count":196,
			"type":"VEC3"
		},
		{
			"bufferView":47,
			"componentType":5126,
			"count":196,
			"type":"VEC2"
		},
		{
			"bufferView":48,
			"componentType":5123,
			"count":564,
			"type":"SCALAR"
		},
		{
			"bufferView":49,
			"componentType":5126,
			"count":134,
			"max":[
				0.06686490774154663,
				0.027242660522460938,
				0.11690953373908997
			],
			"min":[
				-0.02926933765411377,
				-0.024637341499328613,
				-0.036317288875579834
			],
			"type":"VEC3"
		},
		{
			"bufferView":50,
			"componentType":5126,
			"count":134,
			"type":"VEC3"
		},
		{
			"bufferView":51,
			"componentType":5126,
			"count":134,
			"type":"VEC2"
		},
		{
			"bufferView":52,
			"componentType":5123,
			"count":372,
			"type":"SCALAR"
		},
		{
			"bufferView":53,
			"componentType":5126,
			"count":191,
			"max":[
				0.06484627723693848,
				0.05785179138183594,
				0.1552094966173172
			],
			"min":[
				-0.10393095016479492,
				-0.061887502670288086,
				-0.20335575938224792
			],
			"type":"VEC3"
		},
		{
			"bufferView":54,
			"componentType":5126,
			"count":191,
			"type":"VEC3"
		},
		{
			"bufferView":55,
			"componentType":5126,
			"count":191,
			"type":"VEC2"
		},
		{
			"bufferView":56,
			"componentType":5123,
			"count":564,
			"type":"SCALAR"
		}
	],
	"bufferViews":[
		{
			"buffer":0,
			"byteLength":790800,
			"byteOffset":0,
			"target":34962
		},
		{
			"buffer":0,
			"byteLength":790800,
			"byteOffset":790800,
			"target":34962
		},
		{
			"buffer":0,
			"byteLength":287088,
			"byteOffset":1581600,
			"target":34963
		},
		{
			"buffer":0,
			"byteLength":387768,
			"byteOffset":1868688,
			"target":34962
		},
		{
			"buffer":0,
			"byteLength":387768,
			"byteOffset":2256456,
			"target":34962
		},
		{
			"buffer":0,
			"byteLength":89016,
			"byteOffset":2644224,
			"target":34963
		},
		{
			"buffer":0,
			"byteLength":173040,
			"byteOffset":2733240,
			"target":34962
		},
		{
			"buffer":0,
			"byteLength":173040,
			"byteOffset":2906280,
			"target":34962
		},
		{
			"buffer":0,
			"byteLength":43884,
			"byteOffset":3079320,
			"target":34963
		},
		{
			"buffer":0,
			"byteLength":2534988,
			"byteOffset":3123204,
			"target":34962
		},
		{
			"buffer":0,
			"byteLength":2534988,
			"byteOffset":5658192,
			"target":34962
		},
		{
			"buffer":0,
			"byteLength":995664,
			"byteOffset":8193180,
			"target":34963
		},
		{
			"buffer":0,
			"byteLength":2508,
			"byteOffset":9188844,
			"target":34962
		},
		{
			"buffer":0,
			"byteLength":2508,
			"byteOffset":9191352,
			"target":34962
		},
		{
			"buffer":0,
			"byteLength":1672,
			"byteOffset":9193860,
			"target":34962
		},
		{
			"buffer":0,
			"byteLength":3344,
			"byteOffset":9195532,
			"target":34962
		},
		{
			"buffer":0,
			"byteLength":2160,
			"byteOffset":9198876,
			"target":34963
		},
		{
			"buffer":0,
			"byteLength":227808,
			"byteOffset":9201036,
			"target":34962
		},
		{
			"buffer":0,
			"byteLength":227808,
			"byteOffset":9428844,
			"target":34962
		},
		{
			"buffer":0,
			"byteLength":57156,
			"byteOffset":9656652,
			"target":34963
		},
		{
			"buffer":0,
			"byteLength":1232988,
			"byteOffset":9713808,
			"target":34962
		},
		{
			"buffer":0,
			"byteLength":1232988,
			"byteOffset":10946796,
			"target":34962
		},
		{
			"buffer":0,
			"byteLength":465744,
			"byteOffset":12179784,
			"target":34963
		},
		{
			"buffer":0,
			"byteLength":413736,
			"byteOffset":12645528,
			"target":34962
		},
		{
			"buffer":0,
			"byteLength":413736,
			"byteOffset":13059264,
			"target":34962
		},
		{
			"buffer":0,
			"byteLength":78150,
			"byteOffset":13473000,
			"target":34963
		},
		{
			"buffer":0,
			"byteLength":664944,
			"byteOffset":13551152,
			"target":34962
		},
		{
			"buffer":0,
			"byteLength":664944,
			"byteOffset":14216096,
			"target":34962
		},
		{
			"buffer":0,
			"byteLength":129636,
			"byteOffset":14881040,
			"target":34963
		},
		{
			"buffer":0,
			"byteLength":36,
			"byteOffset":15010676,
			"target":34962
		},
		{
			"buffer":0,
			"byteLength":36,
			"byteOffset":15010712,
			"target":34962
		},
		{
			"buffer":0,
			"byteLength":24,
			"byteOffset":15010748,
			"target":34962
		},
		{
			"buffer":0,
			"byteLength":48,
			"byteOffset":15010772,
			"target":34962
		},
		{
			"buffer":0,
			"byteLength":6,
			"byteOffset":15010820,
			"target":34963
		},
		{
			"buffer":0,
			"byteLength":312,
			"byteOffset":15010828,
			"target":34962
		},
		{
			"buffer":0,
			"byteLength":312,
			"byteOffset":15011140,
			"target":34962
		},
		{
			"buffer":0,
			"byteLength":208,
			"byteOffset":15011452,
			"target":34962
		},
		{
			"buffer":0,
			"byteLength":84,
			"byteOffset":15011660,
			"target":34963
		},
		{
			"buffer":0,
			"byteLength":316020,
			"byteOffset":15011744,
			"target":34962
		},
		{
			"buffer":0,
			"byteLength":316020,
			"byteOffset":15327764,
			"target":34962
		},
		{
			"buffer":0,
			"byteLength":316092,
			"byteOffset":15643784,
			"target":34963
		},
		{
			"buffer":0,
			"byteLength":1560,
			"byteOffset":15959876,
			"target":34962
		},
		{
			"buffer":0,
			"byteLength":1560,
			"byteOffset":15961436,
			"target":34962
		},
		{
			"buffer":0,
			"byteLength":1040,
			"byteOffset":15962996,
			"target":34962
		},
		{
			"buffer":0,
			"byteLength":744,
			"byteOffset":15964036,
			"target":34963
		},
		{
			"buffer":0,
			"byteLength":2352,
			"byteOffset":15964780,
			"target":34962
		},
		{
			"buffer":0,
			"byteLength":2352,
			"byteOffset":15967132,
			"target":34962
		},
		{
			"buffer":0,
			"byteLength":1568,
			"byteOffset":15969484,
			"target":34962
		},
		{
			"buffer":0,
			"byteLength":1128,
			"byteOffset":15971052,
			"target":34963
		},
		{
			"buffer":0,
			"byteLength":1608,
			"byteOffset":15972180,
			"target":34962
		},
		{
			"buffer":0,
			"byteLength":1608,
			"byteOffset":15973788,
			"target":34962
		},
		{
			"buffer":0,
			"byteLength":1072,
			"byteOffset":15975396,
			"target":34962
		},
		{
			"buffer":0,
			"byteLength":744,
			"byteOffset":15976468,
			"target":34963
		},
		{
			"buffer":0,
			"byteLength":2292,
			"byteOffset":15977212,
			"target":34962
		},
		{
			"buffer":0,
			"byteLength":2292,
			"byteOffset":15979504,
			"target":34962
		},
		{
			"buffer":0,
			"byteLength":1528,
			"byteOffset":15981796,
			"target":34962
		},
		{
			"buffer":0,
			"byteLength":1128,
			"byteOffset":15983324,
			"target":34963
		}
	],
	"samplers":[
		{
			"magFilter":9729,
			"minFilter":9987
		}
	],
	"buffers":[
		{
			"byteLength":15984452,
			"uri":"anglerfish-0a62f67b0448f9fe9cab711d161a16db.bin"
		}
	]
}
