{
	"asset":{
		"generator":"Khronos glTF Blender I/O v4.1.63",
		"version":"2.0"
	},
	"extensionsUsed":[
		"KHR_materials_specular",
		"KHR_materials_anisotropy",
		"KHR_materials_ior"
	],
	"scene":0,
	"scenes":[
		{
			"name":"Scene",
			"nodes":[
				0,
				1
			]
		}
	],
	"nodes":[
		{
			"mesh":0,
			"name":"BROV2-HEAVY-ASM-BROV2-HEAVY-R1.039"
		},
		{
			"mesh":1,
			"name":"PING360-M-FRAME-MOUNT-R1",
			"scale":[
				3.504359722137451,
				3.504359722137451,
				3.504359722137451
			],
			"translation":[
				0.12794005870819092,
				0.4391018748283386,
				0.6314245462417603
			]
		}
	],
	"materials":[
		{
			"doubleSided":true,
			"name":"black metal",
			"pbrMetallicRoughness":{
				"baseColorFactor":[
					0.09462597221136093,
					0.09462597221136093,
					0.09462597221136093,
					1
				],
				"metallicFactor":0.7159090638160706,
				"roughnessFactor":0.5
			}
		},
		{
			"doubleSided":true,
			"name":"blue plastic",
			"pbrMetallicRoughness":{
				"baseColorFactor":[
					0.02399379573762417,
					0.37570223212242126,
					0.8000000715255737,
					1
				],
				"metallicFactor":0,
				"roughnessFactor":0.5
			}
		},
		{
			"alphaMode":"BLEND",
			"doubleSided":true,
			"extensions":{
				"KHR_materials_specular":{
					"specularColorFactor":[
						1.5982062816619873,
						1.598205804824829,
						1.5982060432434082
					]
				},
				"KHR_materials_anisotropy":{
					"anisotropyStrength":1
				},
				"KHR_materials_ior":{
					"ior":135.29998779296875
				}
			},
			"name":"acrilic",
			"pbrMetallicRoughness":{
				"baseColorFactor":[
					0.7991031408309937,
					0.7991029024124146,
					0.7991030216217041,
					0.005714699625968933
				],
				"metallicFactor":0.34285712242126465,
				"roughnessFactor":0
			}
		},
		{
			"doubleSided":true,
			"name":"black plastic",
			"pbrMetallicRoughness":{
				"baseColorFactor":[
					0.02037898264825344,
					0.02037898264825344,
					0.02037898264825344,
					1
				],
				"metallicFactor":0,
				"roughnessFactor":0.5
			}
		},
		{
			"doubleSided":true,
			"name":"red metal",
			"pbrMetallicRoughness":{
				"baseColorFactor":[
					0.19598853588104248,
					0.0017276742728427052,
					0.026760777458548546,
					1
				],
				"metallicFactor":0.7897727489471436,
				"roughnessFactor":0.5
			}
		},
		{
			"alphaMode":"BLEND",
			"doubleSided":true,
			"name":"lumen acrilic",
			"pbrMetallicRoughness":{
				"baseColorFactor":[
					0.800000011920929,
					0.800000011920929,
					0.800000011920929,
					0.34285712242126465
				],
				"metallicFactor":0,
				"roughnessFactor":0.5
			}
		},
		{
			"doubleSided":true,
			"name":"black metal.002",
			"pbrMetallicRoughness":{
				"baseColorFactor":[
					0.012524448335170746,
					0.18393732607364655,
					0.74840247631073,
					1
				],
				"metallicFactor":0.7159090638160706,
				"roughnessFactor":0.5
			}
		}
	],
	"meshes":[
		{
			"name":"BROV2-HEAVY-ASM-BROV2-HEAVY-R1.1180",
			"primitives":[
				{
					"attributes":{
						"POSITION":0,
						"NORMAL":1,
						"TEXCOORD_0":2
					},
					"indices":3,
					"material":0
				},
				{
					"attributes":{
						"POSITION":4,
						"NORMAL":5,
						"TEXCOORD_0":6
					},
					"indices":7,
					"material":1
				},
				{
					"attributes":{
						"POSITION":8,
						"NORMAL":9,
						"TEXCOORD_0":10
					},
					"indices":11,
					"material":2
				},
				{
					"attributes":{
						"POSITION":12,
						"NORMAL":13,
						"TEXCOORD_0":14
					},
					"indices":15,
					"material":3
				},
				{
					"attributes":{
						"POSITION":16,
						"NORMAL":17,
						"TEXCOORD_0":18
					},
					"indices":19,
					"material":4
				},
				{
					"attributes":{
						"POSITION":20,
						"NORMAL":21,
						"TEXCOORD_0":22
					},
					"indices":23,
					"material":5
				}
			]
		},
		{
			"name":"PING360-M-FRAME-MOUNT-R1",
			"primitives":[
				{
					"attributes":{
						"POSITION":24,
						"NORMAL":25
					},
					"indices":26,
					"material":0
				},
				{
					"attributes":{
						"POSITION":27,
						"NORMAL":28
					},
					"indices":29,
					"material":3
				},
				{
					"attributes":{
						"POSITION":30,
						"NORMAL":31
					},
					"indices":32,
					"material":6
				}
			]
		}
	],
	"accessors":[
		{
			"bufferView":0,
			"componentType":5126,
			"count":32303,
			"max":[
				0.8743847012519836,
				0.5002180933952332,
				0.8351078033447266
			],
			"min":[
				-0.6440034508705139,
				-0.40598443150520325,
				-0.8200734853744507
			],
			"type":"VEC3"
		},
		{
			"bufferView":1,
			"componentType":5126,
			"count":32303,
			"type":"VEC3"
		},
		{
			"bufferView":2,
			"componentType":5126,
			"count":32303,
			"type":"VEC2"
		},
		{
			"bufferView":3,
			"componentType":5123,
			"count":38799,
			"type":"SCALAR"
		},
		{
			"bufferView":4,
			"componentType":5126,
			"count":51547,
			"max":[
				0.8685048222541809,
				0.5097829103469849,
				0.9850791692733765
			],
			"min":[
				-0.8253995776176453,
				-0.1496374011039734,
				-0.9702862501144409
			],
			"type":"VEC3"
		},
		{
			"bufferView":5,
			"componentType":5126,
			"count":51547,
			"type":"VEC3"
		},
		{
			"bufferView":6,
			"componentType":5126,
			"count":51547,
			"type":"VEC2"
		},
		{
			"bufferView":7,
			"componentType":5123,
			"count":53046,
			"type":"SCALAR"
		},
		{
			"bufferView":8,
			"componentType":5126,
			"count":6466,
			"max":[
				0.8258059620857239,
				0.45200854539871216,
				0.22572928667068481
			],
			"min":[
				-0.5842149257659912,
				-0.3814694285392761,
				-0.22915267944335938
			],
			"type":"VEC3"
		},
		{
			"bufferView":9,
			"componentType":5126,
			"count":6466,
			"type":"VEC3"
		},
		{
			"bufferView":10,
			"componentType":5126,
			"count":6466,
			"type":"VEC2"
		},
		{
			"bufferView":11,
			"componentType":5123,
			"count":6960,
			"type":"SCALAR"
		},
		{
			"bufferView":12,
			"componentType":5126,
			"count":254115,
			"max":[
				0.8952732682228088,
				0.5122535228729248,
				1.152864933013916
			],
			"min":[
				-0.9266239404678345,
				-0.4991370737552643,
				-1.1380716562271118
			],
			"type":"VEC3"
		},
		{
			"bufferView":13,
			"componentType":5126,
			"count":254115,
			"type":"VEC3"
		},
		{
			"bufferView":14,
			"componentType":5126,
			"count":254115,
			"type":"VEC2"
		},
		{
			"bufferView":15,
			"componentType":5125,
			"count":269997,
			"type":"SCALAR"
		},
		{
			"bufferView":16,
			"componentType":5126,
			"count":1638,
			"max":[
				-0.4546942710876465,
				0.3845158815383911,
				0.16094756126403809
			],
			"min":[
				-0.6737229228019714,
				-0.28962039947509766,
				-0.16584861278533936
			],
			"type":"VEC3"
		},
		{
			"bufferView":17,
			"componentType":5126,
			"count":1638,
			"type":"VEC3"
		},
		{
			"bufferView":18,
			"componentType":5126,
			"count":1638,
			"type":"VEC2"
		},
		{
			"bufferView":19,
			"componentType":5123,
			"count":2748,
			"type":"SCALAR"
		},
		{
			"bufferView":20,
			"componentType":5126,
			"count":6528,
			"max":[
				0.8918885588645935,
				0.4692951440811157,
				0.8347090482711792
			],
			"min":[
				0.798980176448822,
				-0.3420445919036865,
				-0.8198100328445435
			],
			"type":"VEC3"
		},
		{
			"bufferView":21,
			"componentType":5126,
			"count":6528,
			"type":"VEC3"
		},
		{
			"bufferView":22,
			"componentType":5126,
			"count":6528,
			"type":"VEC2"
		},
		{
			"bufferView":23,
			"componentType":5123,
			"count":6669,
			"type":"SCALAR"
		},
		{
			"bufferView":24,
			"componentType":5126,
			"count":1247,
			"max":[
				0.00024793471675366163,
				0.02600223571062088,
				0.01725352182984352
			],
			"min":[
				-0.05979226902127266,
				3.957829176215455e-05,
				-0.061763059347867966
			],
			"type":"VEC3"
		},
		{
			"bufferView":25,
			"componentType":5126,
			"count":1247,
			"type":"VEC3"
		},
		{
			"bufferView":26,
			"componentType":5123,
			"count":1542,
			"type":"SCALAR"
		},
		{
			"bufferView":27,
			"componentType":5126,
			"count":13215,
			"max":[
				0.008143562823534012,
				0.11054766923189163,
				0.008506061509251595
			],
			"min":[
				-0.06972834467887878,
				0.026571035385131836,
				-0.06943588703870773
			],
			"type":"VEC3"
		},
		{
			"bufferView":28,
			"componentType":5126,
			"count":13215,
			"type":"VEC3"
		},
		{
			"bufferView":29,
			"componentType":5123,
			"count":14232,
			"type":"SCALAR"
		},
		{
			"bufferView":30,
			"componentType":5126,
			"count":1839,
			"max":[
				0.00817805528640747,
				0.08070360869169235,
				0.008515672758221626
			],
			"min":[
				-0.0764768049120903,
				0.030099377036094666,
				-0.0694250538945198
			],
			"type":"VEC3"
		},
		{
			"bufferView":31,
			"componentType":5126,
			"count":1839,
			"type":"VEC3"
		},
		{
			"bufferView":32,
			"componentType":5123,
			"count":1848,
			"type":"SCALAR"
		}
	],
	"bufferViews":[
		{
			"buffer":0,
			"byteLength":387636,
			"byteOffset":0,
			"target":34962
		},
		{
			"buffer":0,
			"byteLength":387636,
			"byteOffset":387636,
			"target":34962
		},
		{
			"buffer":0,
			"byteLength":258424,
			"byteOffset":775272,
			"target":34962
		},
		{
			"buffer":0,
			"byteLength":77598,
			"byteOffset":1033696,
			"target":34963
		},
		{
			"buffer":0,
			"byteLength":618564,
			"byteOffset":1111296,
			"target":34962
		},
		{
			"buffer":0,
			"byteLength":618564,
			"byteOffset":1729860,
			"target":34962
		},
		{
			"buffer":0,
			"byteLength":412376,
			"byteOffset":2348424,
			"target":34962
		},
		{
			"buffer":0,
			"byteLength":106092,
			"byteOffset":2760800,
			"target":34963
		},
		{
			"buffer":0,
			"byteLength":77592,
			"byteOffset":2866892,
			"target":34962
		},
		{
			"buffer":0,
			"byteLength":77592,
			"byteOffset":2944484,
			"target":34962
		},
		{
			"buffer":0,
			"byteLength":51728,
			"byteOffset":3022076,
			"target":34962
		},
		{
			"buffer":0,
			"byteLength":13920,
			"byteOffset":3073804,
			"target":34963
		},
		{
			"buffer":0,
			"byteLength":3049380,
			"byteOffset":3087724,
			"target":34962
		},
		{
			"buffer":0,
			"byteLength":3049380,
			"byteOffset":6137104,
			"target":34962
		},
		{
			"buffer":0,
			"byteLength":2032920,
			"byteOffset":9186484,
			"target":34962
		},
		{
			"buffer":0,
			"byteLength":1079988,
			"byteOffset":11219404,
			"target":34963
		},
		{
			"buffer":0,
			"byteLength":19656,
			"byteOffset":12299392,
			"target":34962
		},
		{
			"buffer":0,
			"byteLength":19656,
			"byteOffset":12319048,
			"target":34962
		},
		{
			"buffer":0,
			"byteLength":13104,
			"byteOffset":12338704,
			"target":34962
		},
		{
			"buffer":0,
			"byteLength":5496,
			"byteOffset":12351808,
			"target":34963
		},
		{
			"buffer":0,
			"byteLength":78336,
			"byteOffset":12357304,
			"target":34962
		},
		{
			"buffer":0,
			"byteLength":78336,
			"byteOffset":12435640,
			"target":34962
		},
		{
			"buffer":0,
			"byteLength":52224,
			"byteOffset":12513976,
			"target":34962
		},
		{
			"buffer":0,
			"byteLength":13338,
			"byteOffset":12566200,
			"target":34963
		},
		{
			"buffer":0,
			"byteLength":14964,
			"byteOffset":12579540,
			"target":34962
		},
		{
			"buffer":0,
			"byteLength":14964,
			"byteOffset":12594504,
			"target":34962
		},
		{
			"buffer":0,
			"byteLength":3084,
			"byteOffset":12609468,
			"target":34963
		},
		{
			"buffer":0,
			"byteLength":158580,
			"byteOffset":12612552,
			"target":34962
		},
		{
			"buffer":0,
			"byteLength":158580,
			"byteOffset":12771132,
			"target":34962
		},
		{
			"buffer":0,
			"byteLength":28464,
			"byteOffset":12929712,
			"target":34963
		},
		{
			"buffer":0,
			"byteLength":22068,
			"byteOffset":12958176,
			"target":34962
		},
		{
			"buffer":0,
			"byteLength":22068,
			"byteOffset":12980244,
			"target":34962
		},
		{
			"buffer":0,
			"byteLength":3696,
			"byteOffset":13002312,
			"target":34963
		}
	],
	"buffers":[
		{
			"byteLength":13006008,
			"uri":"bluerov2-694bbcfbc70c62b5faf157daf1ba1f3d.bin"
		}
	]
}
