{
	"asset":{
		"generator":"Khronos glTF Blender I/O v4.1.63",
		"version":"2.0"
	},
	"extensionsUsed":[
		"KHR_materials_clearcoat",
		"KHR_materials_specular",
		"KHR_materials_anisotropy",
		"KHR_materials_ior"
	],
	"scene":0,
	"scenes":[
		{
			"name":"Scene",
			"nodes":[
				0,
				1,
				2,
				3,
				4,
				5
			]
		}
	],
	"nodes":[
		{
			"name":"Empty",
			"rotation":[
				0.4684380292892456,
				0.4684380292892456,
				-0.5296846628189087,
				0.5296847224235535
			],
			"scale":[
				1.894906759262085,
				1.894906759262085,
				1.894906759262085
			],
			"translation":[
				0,
				-0.11530160903930664,
				0.5974720120429993
			]
		},
		{
			"mesh":0,
			"name":"Cylinder.005",
			"rotation":[
				0.7071068286895752,
				0,
				0,
				0.7071068286895752
			],
			"scale":[
				0.04656244069337845,
				0.13968732953071594,
				0.04656244069337845
			]
		},
		{
			"mesh":1,
			"name":"tail",
			"rotation":[
				0.7071068286895752,
				0,
				0,
				0.7071068286895752
			],
			"scale":[
				0.04656244069337845,
				0.13968732953071594,
				0.04656244069337845
			]
		},
		{
			"mesh":2,
			"name":"Cylinder.001",
			"rotation":[
				0.7071068286895752,
				0,
				0,
				0.7071068286895752
			],
			"scale":[
				0.04656244069337845,
				0.13968732953071594,
				0.04656244069337845
			]
		},
		{
			"mesh":3,
			"name":"Cylinder.002",
			"rotation":[
				0.7071068286895752,
				0,
				0,
				0.7071068286895752
			],
			"scale":[
				0.04656244069337845,
				0.13968732953071594,
				0.04656244069337845
			]
		},
		{
			"mesh":4,
			"name":"Cylinder.003",
			"rotation":[
				0.7071068286895752,
				0,
				0,
				0.7071068286895752
			],
			"scale":[
				0.04656244069337845,
				0.13968732953071594,
				0.04656244069337845
			]
		}
	],
	"animations":[
		{
			"channels":[
				{
					"sampler":0,
					"target":{
						"node":2,
						"path":"rotation"
					}
				}
			],
			"name":"spinprops-loop",
			"samplers":[
				{
					"input":40,
					"interpolation":"LINEAR",
					"output":41
				}
			]
		}
	],
	"materials":[
		{
			"doubleSided":true,
			"name":"black metal.001",
			"pbrMetallicRoughness":{
				"baseColorFactor":[
					0.043273989111185074,
					0.043273989111185074,
					0.043273989111185074,
					1
				],
				"metallicFactor":0,
				"roughnessFactor":0.5
			}
		},
		{
			"alphaMode":"BLEND",
			"doubleSided":true,
			"extensions":{
				"KHR_materials_clearcoat":{
					"clearcoatFactor":0.3861386179924011,
					"clearcoatRoughnessFactor":0.029999999329447746
				}
			},
			"name":"Material.002",
			"pbrMetallicRoughness":{
				"baseColorFactor":[
					0.800000011920929,
					0.800000011920929,
					0.800000011920929,
					0.29702967405319214
				],
				"metallicFactor":0,
				"roughnessFactor":0.5
			}
		},
		{
			"doubleSided":true,
			"extensions":{
				"KHR_materials_specular":{
					"specularColorFactor":[
						2.0,
						2.0,
						2.0
					]
				},
				"KHR_materials_anisotropy":{
					"anisotropyStrength":0.9603960514068604
				},
				"KHR_materials_ior":{
					"ior":1.4500000476837158
				}
			},
			"name":"Material",
			"pbrMetallicRoughness":{
				"metallicFactor":0.2574257552623749,
				"roughnessFactor":0.5
			}
		},
		{
			"doubleSided":true,
			"name":"black metal.002",
			"pbrMetallicRoughness":{
				"baseColorFactor":[
					0.043273989111185074,
					0.043273989111185074,
					0.043273989111185074,
					1
				],
				"metallicFactor":0,
				"roughnessFactor":0.5
			}
		},
		{
			"doubleSided":true,
			"extensions":{
				"KHR_materials_specular":{
					"specularColorFactor":[
						2.0,
						2.0,
						2.0
					]
				},
				"KHR_materials_anisotropy":{
					"anisotropyStrength":0.9603960514068604
				},
				"KHR_materials_ior":{
					"ior":1.4500000476837158
				}
			},
			"name":"eye white",
			"pbrMetallicRoughness":{
				"metallicFactor":0.2574257552623749,
				"roughnessFactor":0.5
			}
		},
		{
			"doubleSided":true,
			"name":"Br Blue.003",
			"pbrMetallicRoughness":{
				"baseColorFactor":[
					0.01852644607424736,
					0.08626754581928253,
					0.7999992966651917,
					1
				],
				"metallicFactor":0,
				"roughnessFactor":0.5
			}
		},
		{
			"doubleSided":true,
			"name":"Br Blue",
			"pbrMetallicRoughness":{
				"baseColorFactor":[
					0.01852644607424736,
					0.08626754581928253,
					0.7999992966651917,
					1
				],
				"metallicFactor":0,
				"roughnessFactor":0.5
			}
		},
		{
			"doubleSided":true,
			"name":"Br Blue.002",
			"pbrMetallicRoughness":{
				"baseColorFactor":[
					0.01852644607424736,
					0.08626754581928253,
					0.7999992966651917,
					1
				],
				"metallicFactor":0,
				"roughnessFactor":0.5
			}
		}
	],
	"meshes":[
		{
			"name":"Cylinder.005",
			"primitives":[
				{
					"attributes":{
						"POSITION":0,
						"NORMAL":1,
						"TEXCOORD_0":2
					},
					"indices":3,
					"material":0
				},
				{
					"attributes":{
						"POSITION":4,
						"NORMAL":5,
						"TEXCOORD_0":6
					},
					"indices":7,
					"material":1
				},
				{
					"attributes":{
						"POSITION":8,
						"NORMAL":9,
						"TEXCOORD_0":10
					},
					"indices":11,
					"material":2
				},
				{
					"attributes":{
						"POSITION":12,
						"NORMAL":13,
						"TEXCOORD_0":14
					},
					"indices":15,
					"material":3
				},
				{
					"attributes":{
						"POSITION":16,
						"NORMAL":17,
						"TEXCOORD_0":18
					},
					"indices":19,
					"material":4
				},
				{
					"attributes":{
						"POSITION":20,
						"NORMAL":21,
						"TEXCOORD_0":22
					},
					"indices":23,
					"material":5
				}
			]
		},
		{
			"name":"Cylinder.006",
			"primitives":[
				{
					"attributes":{
						"POSITION":24,
						"NORMAL":25,
						"TEXCOORD_0":26,
						"TANGENT":27
					},
					"indices":28,
					"material":6
				}
			]
		},
		{
			"name":"Cylinder.007",
			"primitives":[
				{
					"attributes":{
						"POSITION":29,
						"NORMAL":30,
						"TEXCOORD_0":31
					},
					"indices":32,
					"material":7
				}
			]
		},
		{
			"name":"Cylinder.014",
			"primitives":[
				{
					"attributes":{
						"POSITION":33,
						"NORMAL":34,
						"TEXCOORD_0":35
					},
					"indices":36,
					"material":7
				}
			]
		},
		{
			"name":"Cylinder.015",
			"primitives":[
				{
					"attributes":{
						"POSITION":37,
						"NORMAL":38,
						"TEXCOORD_0":39
					},
					"indices":23,
					"material":6
				}
			]
		}
	],
	"accessors":[
		{
			"bufferView":0,
			"componentType":5126,
			"count":494,
			"max":[
				1.1700634956359863,
				1.0864185094833374,
				1.1700634956359863
			],
			"min":[
				-1.1700634956359863,
				-1,
				-1.1700634956359863
			],
			"type":"VEC3"
		},
		{
			"bufferView":1,
			"componentType":5126,
			"count":494,
			"type":"VEC3"
		},
		{
			"bufferView":2,
			"componentType":5126,
			"count":494,
			"type":"VEC2"
		},
		{
			"bufferView":3,
			"componentType":5123,
			"count":1410,
			"type":"SCALAR"
		},
		{
			"bufferView":4,
			"componentType":5126,
			"count":357,
			"max":[
				1,
				1.2230995893478394,
				1
			],
			"min":[
				-1,
				-0.8748840093612671,
				-1.0000001192092896
			],
			"type":"VEC3"
		},
		{
			"bufferView":5,
			"componentType":5126,
			"count":357,
			"type":"VEC3"
		},
		{
			"bufferView":6,
			"componentType":5126,
			"count":357,
			"type":"VEC2"
		},
		{
			"bufferView":7,
			"componentType":5123,
			"count":1752,
			"type":"SCALAR"
		},
		{
			"bufferView":8,
			"componentType":5126,
			"count":191,
			"max":[
				0.7390530705451965,
				1.1170276403427124,
				-0.16313637793064117
			],
			"min":[
				0.5702758431434631,
				0.9972883462905884,
				-0.5217016339302063
			],
			"type":"VEC3"
		},
		{
			"bufferView":9,
			"componentType":5126,
			"count":191,
			"type":"VEC3"
		},
		{
			"bufferView":10,
			"componentType":5126,
			"count":191,
			"type":"VEC2"
		},
		{
			"bufferView":11,
			"componentType":5123,
			"count":564,
			"type":"SCALAR"
		},
		{
			"bufferView":12,
			"componentType":5126,
			"count":134,
			"max":[
				-0.6832378506660461,
				1.0846177339553833,
				-0.18949593603610992
			],
			"min":[
				-0.7812048196792603,
				1.0327348709106445,
				-0.3428160846233368
			],
			"type":"VEC3"
		},
		{
			"bufferView":13,
			"componentType":5126,
			"count":134,
			"type":"VEC3"
		},
		{
			"bufferView":14,
			"componentType":5126,
			"count":134,
			"type":"VEC2"
		},
		{
			"bufferView":15,
			"componentType":5123,
			"count":372,
			"type":"SCALAR"
		},
		{
			"bufferView":16,
			"componentType":5126,
			"count":190,
			"max":[
				-0.6053823232650757,
				1.1164085865020752,
				-0.15067172050476074
			],
			"min":[
				-0.7787631750106812,
				0.9972858428955078,
				-0.5092165470123291
			],
			"type":"VEC3"
		},
		{
			"bufferView":17,
			"componentType":5126,
			"count":190,
			"type":"VEC3"
		},
		{
			"bufferView":18,
			"componentType":5126,
			"count":190,
			"type":"VEC2"
		},
		{
			"bufferView":19,
			"componentType":5123,
			"count":564,
			"type":"SCALAR"
		},
		{
			"bufferView":20,
			"componentType":5126,
			"count":69,
			"max":[
				0.04623797535896301,
				-0.8089295625686646,
				-0.8997441530227661
			],
			"min":[
				-0.04623797535896301,
				-1.051727294921875,
				-1.6018954515457153
			],
			"type":"VEC3"
		},
		{
			"bufferView":21,
			"componentType":5126,
			"count":69,
			"type":"VEC3"
		},
		{
			"bufferView":22,
			"componentType":5126,
			"count":69,
			"type":"VEC2"
		},
		{
			"bufferView":23,
			"componentType":5123,
			"count":168,
			"type":"SCALAR"
		},
		{
			"bufferView":24,
			"componentType":5126,
			"count":760,
			"max":[
				1.295214056968689,
				-1.078812837600708,
				0.9545436501502991
			],
			"min":[
				-1.177965760231018,
				-1.4266568422317505,
				-1.316097617149353
			],
			"type":"VEC3"
		},
		{
			"bufferView":25,
			"componentType":5126,
			"count":760,
			"type":"VEC3"
		},
		{
			"bufferView":26,
			"componentType":5126,
			"count":760,
			"type":"VEC2"
		},
		{
			"bufferView":27,
			"componentType":5126,
			"count":760,
			"type":"VEC4"
		},
		{
			"bufferView":28,
			"componentType":5123,
			"count":2124,
			"type":"SCALAR"
		},
		{
			"bufferView":29,
			"componentType":5126,
			"count":69,
			"max":[
				1.815943717956543,
				0.43846943974494934,
				1.815943717956543
			],
			"min":[
				0.6007382273674011,
				-0.08663532137870789,
				0.6007381677627563
			],
			"type":"VEC3"
		},
		{
			"bufferView":30,
			"componentType":5126,
			"count":69,
			"type":"VEC3"
		},
		{
			"bufferView":31,
			"componentType":5126,
			"count":69,
			"type":"VEC2"
		},
		{
			"bufferView":32,
			"componentType":5123,
			"count":168,
			"type":"SCALAR"
		},
		{
			"bufferView":33,
			"componentType":5126,
			"count":69,
			"max":[
				-0.6007384061813354,
				0.43846943974494934,
				1.8159433603286743
			],
			"min":[
				-1.815943956375122,
				-0.08663532137870789,
				0.6007380485534668
			],
			"type":"VEC3"
		},
		{
			"bufferView":34,
			"componentType":5126,
			"count":69,
			"type":"VEC3"
		},
		{
			"bufferView":35,
			"componentType":5126,
			"count":69,
			"type":"VEC2"
		},
		{
			"bufferView":36,
			"componentType":5123,
			"count":168,
			"type":"SCALAR"
		},
		{
			"bufferView":37,
			"componentType":5126,
			"count":69,
			"max":[
				0.10000002384185791,
				0.43846940994262695,
				-0.9495722055435181
			],
			"min":[
				-0.10000002384185791,
				-0.08663538098335266,
				-2.468132257461548
			],
			"type":"VEC3"
		},
		{
			"bufferView":38,
			"componentType":5126,
			"count":69,
			"type":"VEC3"
		},
		{
			"bufferView":39,
			"componentType":5126,
			"count":69,
			"type":"VEC2"
		},
		{
			"bufferView":40,
			"componentType":5126,
			"count":20,
			"max":[
				0.8333333333333334
			],
			"min":[
				0.041666666666666664
			],
			"type":"SCALAR"
		},
		{
			"bufferView":41,
			"componentType":5126,
			"count":20,
			"type":"VEC4"
		}
	],
	"bufferViews":[
		{
			"buffer":0,
			"byteLength":5928,
			"byteOffset":0,
			"target":34962
		},
		{
			"buffer":0,
			"byteLength":5928,
			"byteOffset":5928,
			"target":34962
		},
		{
			"buffer":0,
			"byteLength":3952,
			"byteOffset":11856,
			"target":34962
		},
		{
			"buffer":0,
			"byteLength":2820,
			"byteOffset":15808,
			"target":34963
		},
		{
			"buffer":0,
			"byteLength":4284,
			"byteOffset":18628,
			"target":34962
		},
		{
			"buffer":0,
			"byteLength":4284,
			"byteOffset":22912,
			"target":34962
		},
		{
			"buffer":0,
			"byteLength":2856,
			"byteOffset":27196,
			"target":34962
		},
		{
			"buffer":0,
			"byteLength":3504,
			"byteOffset":30052,
			"target":34963
		},
		{
			"buffer":0,
			"byteLength":2292,
			"byteOffset":33556,
			"target":34962
		},
		{
			"buffer":0,
			"byteLength":2292,
			"byteOffset":35848,
			"target":34962
		},
		{
			"buffer":0,
			"byteLength":1528,
			"byteOffset":38140,
			"target":34962
		},
		{
			"buffer":0,
			"byteLength":1128,
			"byteOffset":39668,
			"target":34963
		},
		{
			"buffer":0,
			"byteLength":1608,
			"byteOffset":40796,
			"target":34962
		},
		{
			"buffer":0,
			"byteLength":1608,
			"byteOffset":42404,
			"target":34962
		},
		{
			"buffer":0,
			"byteLength":1072,
			"byteOffset":44012,
			"target":34962
		},
		{
			"buffer":0,
			"byteLength":744,
			"byteOffset":45084,
			"target":34963
		},
		{
			"buffer":0,
			"byteLength":2280,
			"byteOffset":45828,
			"target":34962
		},
		{
			"buffer":0,
			"byteLength":2280,
			"byteOffset":48108,
			"target":34962
		},
		{
			"buffer":0,
			"byteLength":1520,
			"byteOffset":50388,
			"target":34962
		},
		{
			"buffer":0,
			"byteLength":1128,
			"byteOffset":51908,
			"target":34963
		},
		{
			"buffer":0,
			"byteLength":828,
			"byteOffset":53036,
			"target":34962
		},
		{
			"buffer":0,
			"byteLength":828,
			"byteOffset":53864,
			"target":34962
		},
		{
			"buffer":0,
			"byteLength":552,
			"byteOffset":54692,
			"target":34962
		},
		{
			"buffer":0,
			"byteLength":336,
			"byteOffset":55244,
			"target":34963
		},
		{
			"buffer":0,
			"byteLength":9120,
			"byteOffset":55580,
			"target":34962
		},
		{
			"buffer":0,
			"byteLength":9120,
			"byteOffset":64700,
			"target":34962
		},
		{
			"buffer":0,
			"byteLength":6080,
			"byteOffset":73820,
			"target":34962
		},
		{
			"buffer":0,
			"byteLength":12160,
			"byteOffset":79900,
			"target":34962
		},
		{
			"buffer":0,
			"byteLength":4248,
			"byteOffset":92060,
			"target":34963
		},
		{
			"buffer":0,
			"byteLength":828,
			"byteOffset":96308,
			"target":34962
		},
		{
			"buffer":0,
			"byteLength":828,
			"byteOffset":97136,
			"target":34962
		},
		{
			"buffer":0,
			"byteLength":552,
			"byteOffset":97964,
			"target":34962
		},
		{
			"buffer":0,
			"byteLength":336,
			"byteOffset":98516,
			"target":34963
		},
		{
			"buffer":0,
			"byteLength":828,
			"byteOffset":98852,
			"target":34962
		},
		{
			"buffer":0,
			"byteLength":828,
			"byteOffset":99680,
			"target":34962
		},
		{
			"buffer":0,
			"byteLength":552,
			"byteOffset":100508,
			"target":34962
		},
		{
			"buffer":0,
			"byteLength":336,
			"byteOffset":101060,
			"target":34963
		},
		{
			"buffer":0,
			"byteLength":828,
			"byteOffset":101396,
			"target":34962
		},
		{
			"buffer":0,
			"byteLength":828,
			"byteOffset":102224,
			"target":34962
		},
		{
			"buffer":0,
			"byteLength":552,
			"byteOffset":103052,
			"target":34962
		},
		{
			"buffer":0,
			"byteLength":80,
			"byteOffset":103604
		},
		{
			"buffer":0,
			"byteLength":320,
			"byteOffset":103684
		}
	],
	"buffers":[
		{
			"byteLength":104004,
			"uri":"fishy-8cbfbf04a9544d05355cc8eefbe73561.bin"
		}
	]
}
