{
	"asset":{
		"generator":"Khronos glTF Blender I/O v4.1.63",
		"version":"2.0"
	},
	"scene":0,
	"scenes":[
		{
			"name":"Scene",
			"nodes":[
				0,
				1
			]
		}
	],
	"nodes":[
		{
			"mesh":0,
			"name":"ladder",
			"rotation":[
				-1,
				0,
				0,
				1.6292068494294654e-07
			],
			"translation":[
				-0.21329307556152344,
				-0.10800457000732422,
				-0.01946401596069336
			]
		},
		{
			"mesh":1,
			"name":"ladder-colonly",
			"rotation":[
				-1,
				0,
				0,
				1.6292068494294654e-07
			],
			"translation":[
				-0.21329307556152344,
				-0.10800457000732422,
				-0.01946401596069336
			]
		}
	],
	"materials":[
		{
			"doubleSided":true,
			"name":"ladderMetal.003",
			"normalTexture":{
				"index":0
			},
			"pbrMetallicRoughness":{
				"baseColorTexture":{
					"index":1
				},
				"metallicFactor":0.7623762488365173,
				"roughnessFactor":0.5
			}
		},
		{
			"doubleSided":true,
			"name":"black plastic.001",
			"pbrMetallicRoughness":{
				"baseColorFactor":[
					0.049745116382837296,
					0.049745116382837296,
					0.049745116382837296,
					1
				],
				"metallicFactor":0.4026402533054352,
				"roughnessFactor":0.5
			}
		},
		{
			"doubleSided":true,
			"name":"ladderMetal",
			"normalTexture":{
				"index":2
			},
			"pbrMetallicRoughness":{
				"baseColorTexture":{
					"index":3
				},
				"metallicFactor":0.7623762488365173,
				"roughnessFactor":0.5
			}
		},
		{
			"doubleSided":true,
			"name":"black plastic",
			"pbrMetallicRoughness":{
				"baseColorFactor":[
					0.049745116382837296,
					0.049745116382837296,
					0.049745116382837296,
					1
				],
				"metallicFactor":0.4026402533054352,
				"roughnessFactor":0.5
			}
		},
		{
			"doubleSided":true,
			"name":"ladderMetal.001",
			"normalTexture":{
				"index":4
			},
			"pbrMetallicRoughness":{
				"baseColorTexture":{
					"index":5
				},
				"metallicFactor":0.5115511417388916,
				"roughnessFactor":0.4669966995716095
			}
		},
		{
			"doubleSided":true,
			"name":"Material.001",
			"pbrMetallicRoughness":{
				"baseColorFactor":[
					0.08716297149658203,
					0.08716297149658203,
					0.08716297149658203,
					1
				],
				"metallicFactor":0,
				"roughnessFactor":0.5
			}
		}
	],
	"meshes":[
		{
			"name":"Cylinder.002",
			"primitives":[
				{
					"attributes":{
						"POSITION":0,
						"NORMAL":1,
						"TEXCOORD_0":2
					},
					"indices":3,
					"material":0
				},
				{
					"attributes":{
						"POSITION":4,
						"NORMAL":5,
						"TEXCOORD_0":6
					},
					"indices":7,
					"material":1
				},
				{
					"attributes":{
						"POSITION":8,
						"NORMAL":9,
						"TEXCOORD_0":10
					},
					"indices":11,
					"material":2
				},
				{
					"attributes":{
						"POSITION":12,
						"NORMAL":13,
						"TEXCOORD_0":14
					},
					"indices":7,
					"material":3
				},
				{
					"attributes":{
						"POSITION":15,
						"NORMAL":16,
						"TEXCOORD_0":17
					},
					"indices":18,
					"material":4
				},
				{
					"attributes":{
						"POSITION":19,
						"NORMAL":20,
						"TEXCOORD_0":21
					},
					"indices":22,
					"material":5
				}
			]
		},
		{
			"name":"Cylinder.001",
			"primitives":[
				{
					"attributes":{
						"POSITION":23,
						"NORMAL":24,
						"TEXCOORD_0":25,
						"TANGENT":26
					},
					"indices":27,
					"material":0
				},
				{
					"attributes":{
						"POSITION":28,
						"NORMAL":29,
						"TEXCOORD_0":30,
						"TANGENT":31
					},
					"indices":32,
					"material":1
				},
				{
					"attributes":{
						"POSITION":33,
						"NORMAL":34,
						"TEXCOORD_0":35,
						"TANGENT":36
					},
					"indices":37,
					"material":2
				},
				{
					"attributes":{
						"POSITION":38,
						"NORMAL":39,
						"TEXCOORD_0":40,
						"TANGENT":41
					},
					"indices":42,
					"material":3
				},
				{
					"attributes":{
						"POSITION":43,
						"NORMAL":44,
						"TEXCOORD_0":45,
						"TANGENT":46
					},
					"indices":47,
					"material":4
				},
				{
					"attributes":{
						"POSITION":48,
						"NORMAL":49,
						"TEXCOORD_0":50,
						"TANGENT":51
					},
					"indices":52,
					"material":5
				}
			]
		}
	],
	"textures":[
		{
			"sampler":0,
			"source":0
		},
		{
			"sampler":0,
			"source":1
		},
		{
			"sampler":0,
			"source":2
		},
		{
			"sampler":0,
			"source":3
		},
		{
			"sampler":0,
			"source":4
		},
		{
			"sampler":0,
			"source":5
		}
	],
	"images":[
		{
			"mimeType":"image/png",
			"name":"stairs_normal.png.003",
			"uri":"../../blender_sources/materials/stairs_normal.png"
		},
		{
			"mimeType":"image/png",
			"name":"stairs_albedo.png.003",
			"uri":"../../blender_sources/materials/stairs_albedo.png"
		},
		{
			"mimeType":"image/png",
			"name":"stairs_normal.png",
			"uri":"../../blender_sources/materials/stairs_normal.png"
		},
		{
			"mimeType":"image/png",
			"name":"stairs_albedo.png",
			"uri":"../../blender_sources/materials/stairs_albedo.png"
		},
		{
			"mimeType":"image/png",
			"name":"stairs_normal.png.001",
			"uri":"../../blender_sources/materials/stairs_normal.png"
		},
		{
			"mimeType":"image/png",
			"name":"stairs_albedo.png.001",
			"uri":"../../blender_sources/materials/stairs_albedo.png"
		}
	],
	"accessors":[
		{
			"bufferView":0,
			"componentType":5126,
			"count":252,
			"max":[
				-0.11105823516845703,
				1.1431403160095215,
				-0.5076689720153809
			],
			"min":[
				-0.1658632755279541,
				-1.379854679107666,
				-0.5638833045959473
			],
			"type":"VEC3"
		},
		{
			"bufferView":1,
			"componentType":5126,
			"count":252,
			"type":"VEC3"
		},
		{
			"bufferView":2,
			"componentType":5126,
			"count":252,
			"type":"VEC2"
		},
		{
			"bufferView":3,
			"componentType":5123,
			"count":432,
			"type":"SCALAR"
		},
		{
			"bufferView":4,
			"componentType":5126,
			"count":912,
			"max":[
				-0.007611274719238281,
				1.1583616733551025,
				-0.36366701126098633
			],
			"min":[
				-0.2560548782348633,
				-1.396360158920288,
				-0.49041223526000977
			],
			"type":"VEC3"
		},
		{
			"bufferView":5,
			"componentType":5126,
			"count":912,
			"type":"VEC3"
		},
		{
			"bufferView":6,
			"componentType":5126,
			"count":912,
			"type":"VEC2"
		},
		{
			"bufferView":7,
			"componentType":5123,
			"count":1368,
			"type":"SCALAR"
		},
		{
			"bufferView":8,
			"componentType":5126,
			"count":540,
			"max":[
				-0.026288986206054688,
				1.1434986591339111,
				0.5622034072875977
			],
			"min":[
				-0.23924541473388672,
				-1.3848998546600342,
				-0.3836355209350586
			],
			"type":"VEC3"
		},
		{
			"bufferView":9,
			"componentType":5126,
			"count":540,
			"type":"VEC3"
		},
		{
			"bufferView":10,
			"componentType":5126,
			"count":540,
			"type":"VEC2"
		},
		{
			"bufferView":11,
			"componentType":5123,
			"count":936,
			"type":"SCALAR"
		},
		{
			"bufferView":12,
			"componentType":5126,
			"count":912,
			"max":[
				-0.007611274719238281,
				1.1583616733551025,
				0.48873233795166016
			],
			"min":[
				-0.2560548782348633,
				-1.396360158920288,
				0.3619871139526367
			],
			"type":"VEC3"
		},
		{
			"bufferView":13,
			"componentType":5126,
			"count":912,
			"type":"VEC3"
		},
		{
			"bufferView":14,
			"componentType":5126,
			"count":912,
			"type":"VEC2"
		},
		{
			"bufferView":15,
			"componentType":5126,
			"count":962,
			"max":[
				0.8955521583557129,
				2.230870008468628,
				0.5557513236999512
			],
			"min":[
				-0.20575428009033203,
				-1.9913115501403809,
				-0.5543570518493652
			],
			"type":"VEC3"
		},
		{
			"bufferView":16,
			"componentType":5126,
			"count":962,
			"type":"VEC3"
		},
		{
			"bufferView":17,
			"componentType":5126,
			"count":962,
			"type":"VEC2"
		},
		{
			"bufferView":18,
			"componentType":5123,
			"count":5184,
			"type":"SCALAR"
		},
		{
			"bufferView":19,
			"componentType":5126,
			"count":52,
			"max":[
				0.5928821563720703,
				-1.8392850160598755,
				0.5557513236999512
			],
			"min":[
				0.4124636650085449,
				-1.9920504093170166,
				-0.5543570518493652
			],
			"type":"VEC3"
		},
		{
			"bufferView":20,
			"componentType":5126,
			"count":52,
			"type":"VEC3"
		},
		{
			"bufferView":21,
			"componentType":5126,
			"count":52,
			"type":"VEC2"
		},
		{
			"bufferView":22,
			"componentType":5123,
			"count":144,
			"type":"SCALAR"
		},
		{
			"bufferView":23,
			"componentType":5126,
			"count":120,
			"max":[
				-0.10868235677480698,
				1.1375682353973389,
				-0.50766921043396
			],
			"min":[
				-0.16765053570270538,
				-1.3837817907333374,
				-0.5638833045959473
			],
			"type":"VEC3"
		},
		{
			"bufferView":24,
			"componentType":5126,
			"count":120,
			"type":"VEC3"
		},
		{
			"bufferView":25,
			"componentType":5126,
			"count":120,
			"type":"VEC2"
		},
		{
			"bufferView":26,
			"componentType":5126,
			"count":120,
			"type":"VEC4"
		},
		{
			"bufferView":27,
			"componentType":5123,
			"count":144,
			"type":"SCALAR"
		},
		{
			"bufferView":28,
			"componentType":5126,
			"count":226,
			"max":[
				-0.009462431073188782,
				1.1566447019577026,
				-0.36600813269615173
			],
			"min":[
				-0.2540002465248108,
				-1.3947967290878296,
				-0.4887114465236664
			],
			"type":"VEC3"
		},
		{
			"bufferView":29,
			"componentType":5126,
			"count":226,
			"type":"VEC3"
		},
		{
			"bufferView":30,
			"componentType":5126,
			"count":226,
			"type":"VEC2"
		},
		{
			"bufferView":31,
			"componentType":5126,
			"count":226,
			"type":"VEC4"
		},
		{
			"bufferView":32,
			"componentType":5123,
			"count":318,
			"type":"SCALAR"
		},
		{
			"bufferView":33,
			"componentType":5126,
			"count":264,
			"max":[
				-0.02924596332013607,
				1.1434986591339111,
				0.5622034072875977
			],
			"min":[
				-0.2362884283065796,
				-1.3848998546600342,
				-0.3810320496559143
			],
			"type":"VEC3"
		},
		{
			"bufferView":34,
			"componentType":5126,
			"count":264,
			"type":"VEC3"
		},
		{
			"bufferView":35,
			"componentType":5126,
			"count":264,
			"type":"VEC2"
		},
		{
			"bufferView":36,
			"componentType":5126,
			"count":264,
			"type":"VEC4"
		},
		{
			"bufferView":37,
			"componentType":5123,
			"count":360,
			"type":"SCALAR"
		},
		{
			"bufferView":38,
			"componentType":5126,
			"count":226,
			"max":[
				-0.009462431073188782,
				1.1566447019577026,
				0.4870315492153168
			],
			"min":[
				-0.2540002465248108,
				-1.3947967290878296,
				0.3643282353878021
			],
			"type":"VEC3"
		},
		{
			"bufferView":39,
			"componentType":5126,
			"count":226,
			"type":"VEC3"
		},
		{
			"bufferView":40,
			"componentType":5126,
			"count":226,
			"type":"VEC2"
		},
		{
			"bufferView":41,
			"componentType":5126,
			"count":226,
			"type":"VEC4"
		},
		{
			"bufferView":42,
			"componentType":5123,
			"count":318,
			"type":"SCALAR"
		},
		{
			"bufferView":43,
			"componentType":5126,
			"count":198,
			"max":[
				0.8925082087516785,
				2.229586124420166,
				0.5487169623374939
			],
			"min":[
				-0.20500364899635315,
				-1.9805500507354736,
				-0.5461310744285583
			],
			"type":"VEC3"
		},
		{
			"bufferView":44,
			"componentType":5126,
			"count":198,
			"type":"VEC3"
		},
		{
			"bufferView":45,
			"componentType":5126,
			"count":198,
			"type":"VEC2"
		},
		{
			"bufferView":46,
			"componentType":5126,
			"count":198,
			"type":"VEC4"
		},
		{
			"bufferView":47,
			"componentType":5123,
			"count":984,
			"type":"SCALAR"
		},
		{
			"bufferView":48,
			"componentType":5126,
			"count":23,
			"max":[
				0.5929765105247498,
				-1.8343431949615479,
				0.553220272064209
			],
			"min":[
				0.4126127362251282,
				-1.992147445678711,
				-0.5521289706230164
			],
			"type":"VEC3"
		},
		{
			"bufferView":49,
			"componentType":5126,
			"count":23,
			"type":"VEC3"
		},
		{
			"bufferView":50,
			"componentType":5126,
			"count":23,
			"type":"VEC2"
		},
		{
			"bufferView":51,
			"componentType":5126,
			"count":23,
			"type":"VEC4"
		},
		{
			"bufferView":52,
			"componentType":5123,
			"count":57,
			"type":"SCALAR"
		}
	],
	"bufferViews":[
		{
			"buffer":0,
			"byteLength":3024,
			"byteOffset":0,
			"target":34962
		},
		{
			"buffer":0,
			"byteLength":3024,
			"byteOffset":3024,
			"target":34962
		},
		{
			"buffer":0,
			"byteLength":2016,
			"byteOffset":6048,
			"target":34962
		},
		{
			"buffer":0,
			"byteLength":864,
			"byteOffset":8064,
			"target":34963
		},
		{
			"buffer":0,
			"byteLength":10944,
			"byteOffset":8928,
			"target":34962
		},
		{
			"buffer":0,
			"byteLength":10944,
			"byteOffset":19872,
			"target":34962
		},
		{
			"buffer":0,
			"byteLength":7296,
			"byteOffset":30816,
			"target":34962
		},
		{
			"buffer":0,
			"byteLength":2736,
			"byteOffset":38112,
			"target":34963
		},
		{
			"buffer":0,
			"byteLength":6480,
			"byteOffset":40848,
			"target":34962
		},
		{
			"buffer":0,
			"byteLength":6480,
			"byteOffset":47328,
			"target":34962
		},
		{
			"buffer":0,
			"byteLength":4320,
			"byteOffset":53808,
			"target":34962
		},
		{
			"buffer":0,
			"byteLength":1872,
			"byteOffset":58128,
			"target":34963
		},
		{
			"buffer":0,
			"byteLength":10944,
			"byteOffset":60000,
			"target":34962
		},
		{
			"buffer":0,
			"byteLength":10944,
			"byteOffset":70944,
			"target":34962
		},
		{
			"buffer":0,
			"byteLength":7296,
			"byteOffset":81888,
			"target":34962
		},
		{
			"buffer":0,
			"byteLength":11544,
			"byteOffset":89184,
			"target":34962
		},
		{
			"buffer":0,
			"byteLength":11544,
			"byteOffset":100728,
			"target":34962
		},
		{
			"buffer":0,
			"byteLength":7696,
			"byteOffset":112272,
			"target":34962
		},
		{
			"buffer":0,
			"byteLength":10368,
			"byteOffset":119968,
			"target":34963
		},
		{
			"buffer":0,
			"byteLength":624,
			"byteOffset":130336,
			"target":34962
		},
		{
			"buffer":0,
			"byteLength":624,
			"byteOffset":130960,
			"target":34962
		},
		{
			"buffer":0,
			"byteLength":416,
			"byteOffset":131584,
			"target":34962
		},
		{
			"buffer":0,
			"byteLength":288,
			"byteOffset":132000,
			"target":34963
		},
		{
			"buffer":0,
			"byteLength":1440,
			"byteOffset":132288,
			"target":34962
		},
		{
			"buffer":0,
			"byteLength":1440,
			"byteOffset":133728,
			"target":34962
		},
		{
			"buffer":0,
			"byteLength":960,
			"byteOffset":135168,
			"target":34962
		},
		{
			"buffer":0,
			"byteLength":1920,
			"byteOffset":136128,
			"target":34962
		},
		{
			"buffer":0,
			"byteLength":288,
			"byteOffset":138048,
			"target":34963
		},
		{
			"buffer":0,
			"byteLength":2712,
			"byteOffset":138336,
			"target":34962
		},
		{
			"buffer":0,
			"byteLength":2712,
			"byteOffset":141048,
			"target":34962
		},
		{
			"buffer":0,
			"byteLength":1808,
			"byteOffset":143760,
			"target":34962
		},
		{
			"buffer":0,
			"byteLength":3616,
			"byteOffset":145568,
			"target":34962
		},
		{
			"buffer":0,
			"byteLength":636,
			"byteOffset":149184,
			"target":34963
		},
		{
			"buffer":0,
			"byteLength":3168,
			"byteOffset":149820,
			"target":34962
		},
		{
			"buffer":0,
			"byteLength":3168,
			"byteOffset":152988,
			"target":34962
		},
		{
			"buffer":0,
			"byteLength":2112,
			"byteOffset":156156,
			"target":34962
		},
		{
			"buffer":0,
			"byteLength":4224,
			"byteOffset":158268,
			"target":34962
		},
		{
			"buffer":0,
			"byteLength":720,
			"byteOffset":162492,
			"target":34963
		},
		{
			"buffer":0,
			"byteLength":2712,
			"byteOffset":163212,
			"target":34962
		},
		{
			"buffer":0,
			"byteLength":2712,
			"byteOffset":165924,
			"target":34962
		},
		{
			"buffer":0,
			"byteLength":1808,
			"byteOffset":168636,
			"target":34962
		},
		{
			"buffer":0,
			"byteLength":3616,
			"byteOffset":170444,
			"target":34962
		},
		{
			"buffer":0,
			"byteLength":636,
			"byteOffset":174060,
			"target":34963
		},
		{
			"buffer":0,
			"byteLength":2376,
			"byteOffset":174696,
			"target":34962
		},
		{
			"buffer":0,
			"byteLength":2376,
			"byteOffset":177072,
			"target":34962
		},
		{
			"buffer":0,
			"byteLength":1584,
			"byteOffset":179448,
			"target":34962
		},
		{
			"buffer":0,
			"byteLength":3168,
			"byteOffset":181032,
			"target":34962
		},
		{
			"buffer":0,
			"byteLength":1968,
			"byteOffset":184200,
			"target":34963
		},
		{
			"buffer":0,
			"byteLength":276,
			"byteOffset":186168,
			"target":34962
		},
		{
			"buffer":0,
			"byteLength":276,
			"byteOffset":186444,
			"target":34962
		},
		{
			"buffer":0,
			"byteLength":184,
			"byteOffset":186720,
			"target":34962
		},
		{
			"buffer":0,
			"byteLength":368,
			"byteOffset":186904,
			"target":34962
		},
		{
			"buffer":0,
			"byteLength":114,
			"byteOffset":187272,
			"target":34963
		}
	],
	"samplers":[
		{
			"magFilter":9729,
			"minFilter":9987
		}
	],
	"buffers":[
		{
			"byteLength":187388,
			"uri":"pool_ladder-d2248c885e09a9afb0c7162457f91dcb.bin"
		}
	]
}
