{
	"asset":{
		"generator":"Khronos glTF Blender I/O v4.1.63",
		"version":"2.0"
	},
	"scene":0,
	"scenes":[
		{
			"name":"Scene",
			"nodes":[
				0,
				1,
				2,
				3,
				4,
				5,
				6,
				7,
				8
			]
		}
	],
	"nodes":[
		{
			"mesh":0,
			"name":"pool-col"
		},
		{
			"mesh":1,
			"name":"vacuumhole",
			"translation":[
				0,
				0.15981560945510864,
				0.11838468909263611
			]
		},
		{
			"mesh":2,
			"name":"ladder-colonly"
		},
		{
			"mesh":3,
			"name":"obstacle-col"
		},
		{
			"mesh":4,
			"name":"Cube-colonly",
			"translation":[
				0,
				4.8083815574646,
				0
			]
		},
		{
			"mesh":5,
			"name":"Plane",
			"rotation":[
				0.5382222533226013,
				-0.5382217168807983,
				0.45860329270362854,
				0.45860376954078674
			],
			"scale":[
				0.09874128550291061,
				0.15452460944652557,
				0.15452459454536438
			],
			"translation":[
				3.9101316928863525,
				1.4308655261993408,
				4.979729175567627
			]
		},
		{
			"mesh":6,
			"name":"ladder-colonly.006"
		},
		{
			"mesh":7,
			"name":"ladder.001",
			"translation":[
				0,
				0,
				0.958048939704895
			]
		},
		{
			"mesh":8,
			"name":"Cylinder.001"
		}
	],
	"materials":[
		{
			"doubleSided":true,
			"name":"PoolWall",
			"normalTexture":{
				"index":0
			},
			"pbrMetallicRoughness":{
				"baseColorTexture":{
					"index":1
				},
				"metallicRoughnessTexture":{
					"index":2
				},
				"roughnessFactor":0.5
			}
		},
		{
			"doubleSided":true,
			"name":"White plastic",
			"pbrMetallicRoughness":{
				"baseColorFactor":[
					0.800000011920929,
					0.800000011920929,
					0.800000011920929,
					1
				],
				"metallicFactor":0,
				"roughnessFactor":0.5
			}
		},
		{
			"doubleSided":true,
			"name":"Darth Eliot",
			"pbrMetallicRoughness":{
				"baseColorTexture":{
					"index":3
				},
				"metallicFactor":0,
				"roughnessFactor":0.5
			}
		},
		{
			"doubleSided":true,
			"name":"ladderMetal",
			"normalTexture":{
				"index":4
			},
			"pbrMetallicRoughness":{
				"baseColorTexture":{
					"index":5
				},
				"metallicFactor":0.7623762488365173,
				"roughnessFactor":0.5
			}
		},
		{
			"alphaCutoff":0.5,
			"alphaMode":"MASK",
			"doubleSided":true,
			"name":"Material",
			"pbrMetallicRoughness":{
				"baseColorTexture":{
					"index":6
				},
				"metallicFactor":0,
				"roughnessFactor":0.5
			}
		},
		{
			"doubleSided":true,
			"name":"ladderMetal.001",
			"normalTexture":{
				"index":7
			},
			"pbrMetallicRoughness":{
				"baseColorTexture":{
					"index":8
				},
				"metallicFactor":0.5115511417388916,
				"roughnessFactor":0.4669966995716095
			}
		},
		{
			"doubleSided":true,
			"name":"Material.001",
			"pbrMetallicRoughness":{
				"baseColorFactor":[
					0.08716297149658203,
					0.08716297149658203,
					0.08716297149658203,
					1
				],
				"metallicFactor":0,
				"roughnessFactor":0.5
			}
		},
		{
			"doubleSided":true,
			"name":"ladderMetal.003",
			"normalTexture":{
				"index":9
			},
			"pbrMetallicRoughness":{
				"baseColorTexture":{
					"index":10
				},
				"metallicFactor":0.7623762488365173,
				"roughnessFactor":0.5
			}
		},
		{
			"doubleSided":true,
			"name":"black plastic.001",
			"pbrMetallicRoughness":{
				"baseColorFactor":[
					0.049745116382837296,
					0.049745116382837296,
					0.049745116382837296,
					1
				],
				"metallicFactor":0.4026402533054352,
				"roughnessFactor":0.5
			}
		},
		{
			"doubleSided":true,
			"name":"black plastic",
			"pbrMetallicRoughness":{
				"baseColorFactor":[
					0.049745116382837296,
					0.049745116382837296,
					0.049745116382837296,
					1
				],
				"metallicFactor":0.4026402533054352,
				"roughnessFactor":0.5
			}
		}
	],
	"meshes":[
		{
			"name":"Cube",
			"primitives":[
				{
					"attributes":{
						"POSITION":0,
						"NORMAL":1,
						"TEXCOORD_0":2,
						"TANGENT":3
					},
					"indices":4,
					"material":0
				}
			]
		},
		{
			"name":"Cylinder",
			"primitives":[
				{
					"attributes":{
						"POSITION":5,
						"NORMAL":6,
						"TEXCOORD_0":7
					},
					"indices":8,
					"material":1
				},
				{
					"attributes":{
						"POSITION":9,
						"NORMAL":10,
						"TEXCOORD_0":11
					},
					"indices":12,
					"material":2
				}
			]
		},
		{
			"name":"Cube.009",
			"primitives":[
				{
					"attributes":{
						"POSITION":13,
						"NORMAL":14,
						"TEXCOORD_0":15,
						"TANGENT":16
					},
					"indices":17,
					"material":3
				}
			]
		},
		{
			"name":"Cube.001",
			"primitives":[
				{
					"attributes":{
						"POSITION":18,
						"NORMAL":19,
						"TEXCOORD_0":20,
						"TANGENT":21
					},
					"indices":22
				}
			]
		},
		{
			"name":"Cube.002",
			"primitives":[
				{
					"attributes":{
						"POSITION":23,
						"NORMAL":24,
						"TEXCOORD_0":25,
						"TANGENT":26,
						"COLOR_0":27
					},
					"indices":28
				}
			]
		},
		{
			"name":"Plane",
			"primitives":[
				{
					"attributes":{
						"POSITION":29,
						"NORMAL":30,
						"TEXCOORD_0":31,
						"TANGENT":32
					},
					"indices":33,
					"material":4
				}
			]
		},
		{
			"name":"Cube.010",
			"primitives":[
				{
					"attributes":{
						"POSITION":34,
						"NORMAL":35,
						"TEXCOORD_0":36,
						"TANGENT":37
					},
					"indices":38,
					"material":3
				}
			]
		},
		{
			"name":"Cube.007",
			"primitives":[
				{
					"attributes":{
						"POSITION":39,
						"NORMAL":40,
						"TEXCOORD_0":41,
						"TANGENT":42
					},
					"indices":43,
					"material":5
				},
				{
					"attributes":{
						"POSITION":44,
						"NORMAL":45,
						"TEXCOORD_0":46,
						"TANGENT":47
					},
					"indices":48,
					"material":6
				}
			]
		},
		{
			"name":"Cylinder.002",
			"primitives":[
				{
					"attributes":{
						"POSITION":49,
						"NORMAL":50,
						"TEXCOORD_0":51
					},
					"indices":52,
					"material":7
				},
				{
					"attributes":{
						"POSITION":53,
						"NORMAL":54,
						"TEXCOORD_0":55
					},
					"indices":56,
					"material":8
				},
				{
					"attributes":{
						"POSITION":57,
						"NORMAL":58,
						"TEXCOORD_0":59
					},
					"indices":60,
					"material":3
				},
				{
					"attributes":{
						"POSITION":61,
						"NORMAL":62,
						"TEXCOORD_0":63
					},
					"indices":56,
					"material":9
				}
			]
		}
	],
	"textures":[
		{
			"sampler":0,
			"source":0
		},
		{
			"sampler":0,
			"source":1
		},
		{
			"sampler":0,
			"source":2
		},
		{
			"sampler":0,
			"source":3
		},
		{
			"sampler":0,
			"source":4
		},
		{
			"sampler":0,
			"source":5
		},
		{
			"sampler":0,
			"source":6
		},
		{
			"sampler":0,
			"source":7
		},
		{
			"sampler":0,
			"source":8
		},
		{
			"sampler":0,
			"source":9
		},
		{
			"sampler":0,
			"source":10
		}
	],
	"images":[
		{
			"mimeType":"image/png",
			"name":"pool_tiles_normal.png",
			"uri":"../../blender_sources/materials/pool_tiles_normal.png"
		},
		{
			"mimeType":"image/png",
			"name":"pool_tiles_albedo.png",
			"uri":"../../blender_sources/materials/pool_tiles_albedo.png"
		},
		{
			"mimeType":"image/png",
			"name":"pool_tiles_metal.exr",
			"uri":"../../blender_sources/materials/pool_tiles_metal.exr"
		},
		{
			"mimeType":"image/jpeg",
			"name":"dartheliot.jpg",
			"uri":"../../blender_sources/materials/dartheliot.jpg"
		},
		{
			"mimeType":"image/png",
			"name":"stairs_normal.png",
			"uri":"../../blender_sources/materials/stairs_normal.png"
		},
		{
			"mimeType":"image/png",
			"name":"stairs_albedo.png",
			"uri":"../../blender_sources/materials/stairs_albedo.png"
		},
		{
			"mimeType":"image/png",
			"name":"eliot.png",
			"uri":"../../blender_sources/eliot.png"
		},
		{
			"mimeType":"image/png",
			"name":"stairs_normal.png.001",
			"uri":"../../blender_sources/materials/stairs_normal.png"
		},
		{
			"mimeType":"image/png",
			"name":"stairs_albedo.png.001",
			"uri":"../../blender_sources/materials/stairs_albedo.png"
		},
		{
			"mimeType":"image/png",
			"name":"stairs_normal.png.003",
			"uri":"../../blender_sources/materials/stairs_normal.png"
		},
		{
			"mimeType":"image/png",
			"name":"stairs_albedo.png.003",
			"uri":"../../blender_sources/materials/stairs_albedo.png"
		}
	],
	"accessors":[
		{
			"bufferView":0,
			"componentType":5126,
			"count":48,
			"max":[
				5.425714492797852,
				3.7477121353149414,
				7.406098365783691
			],
			"min":[
				-7.7605133056640625,
				-0.9947441816329956,
				-15.54833698272705
			],
			"type":"VEC3"
		},
		{
			"bufferView":1,
			"componentType":5126,
			"count":48,
			"type":"VEC3"
		},
		{
			"bufferView":2,
			"componentType":5126,
			"count":48,
			"type":"VEC2"
		},
		{
			"bufferView":3,
			"componentType":5126,
			"count":48,
			"type":"VEC4"
		},
		{
			"bufferView":4,
			"componentType":5123,
			"count":120,
			"type":"SCALAR"
		},
		{
			"bufferView":5,
			"componentType":5126,
			"count":512,
			"max":[
				4.928842544555664,
				-0.5164109468460083,
				-3.9017159938812256
			],
			"min":[
				4.72003173828125,
				-0.7192097902297974,
				-4.1045145988464355
			],
			"type":"VEC3"
		},
		{
			"bufferView":6,
			"componentType":5126,
			"count":512,
			"type":"VEC3"
		},
		{
			"bufferView":7,
			"componentType":5126,
			"count":512,
			"type":"VEC2"
		},
		{
			"bufferView":8,
			"componentType":5123,
			"count":768,
			"type":"SCALAR"
		},
		{
			"bufferView":9,
			"componentType":5126,
			"count":32,
			"max":[
				4.7417683601379395,
				-0.5630090832710266,
				-3.9483139514923096
			],
			"min":[
				4.7417683601379395,
				-0.6726117134094238,
				-4.057916641235352
			],
			"type":"VEC3"
		},
		{
			"bufferView":10,
			"componentType":5126,
			"count":32,
			"type":"VEC3"
		},
		{
			"bufferView":11,
			"componentType":5126,
			"count":32,
			"type":"VEC2"
		},
		{
			"bufferView":12,
			"componentType":5123,
			"count":90,
			"type":"SCALAR"
		},
		{
			"bufferView":13,
			"componentType":5126,
			"count":86,
			"max":[
				5.0579633712768555,
				4.582651138305664,
				5.740381240844727
			],
			"min":[
				3.9573400020599365,
				0.36231470108032227,
				5.579200267791748
			],
			"type":"VEC3"
		},
		{
			"bufferView":14,
			"componentType":5126,
			"count":86,
			"type":"VEC3"
		},
		{
			"bufferView":15,
			"componentType":5126,
			"count":86,
			"type":"VEC2"
		},
		{
			"bufferView":16,
			"componentType":5126,
			"count":86,
			"type":"VEC4"
		},
		{
			"bufferView":17,
			"componentType":5123,
			"count":396,
			"type":"SCALAR"
		},
		{
			"bufferView":18,
			"componentType":5126,
			"count":72,
			"max":[
				0.18732810020446777,
				1.03460693359375,
				0.18732811510562897
			],
			"min":[
				-2.1503052711486816,
				-1.0239830017089844,
				-0.18732811510562897
			],
			"type":"VEC3"
		},
		{
			"bufferView":19,
			"componentType":5126,
			"count":72,
			"type":"VEC3"
		},
		{
			"bufferView":20,
			"componentType":5126,
			"count":72,
			"type":"VEC2"
		},
		{
			"bufferView":21,
			"componentType":5126,
			"count":72,
			"type":"VEC4"
		},
		{
			"bufferView":22,
			"componentType":5123,
			"count":108,
			"type":"SCALAR"
		},
		{
			"bufferView":23,
			"componentType":5126,
			"count":24,
			"max":[
				7.4126691818237305,
				1,
				6.921671390533447
			],
			"min":[
				-7.4126691818237305,
				-1,
				-15.022348403930664
			],
			"type":"VEC3"
		},
		{
			"bufferView":24,
			"componentType":5126,
			"count":24,
			"type":"VEC3"
		},
		{
			"bufferView":25,
			"componentType":5126,
			"count":24,
			"type":"VEC2"
		},
		{
			"bufferView":26,
			"componentType":5126,
			"count":24,
			"type":"VEC4"
		},
		{
			"bufferView":27,
			"componentType":5126,
			"count":24,
			"type":"VEC3"
		},
		{
			"bufferView":28,
			"componentType":5123,
			"count":36,
			"type":"SCALAR"
		},
		{
			"bufferView":29,
			"componentType":5126,
			"count":4,
			"max":[
				1.533363699913025,
				0,
				1.458302617073059
			],
			"min":[
				-1.533363699913025,
				-2.3429453221979202e-07,
				-1
			],
			"type":"VEC3"
		},
		{
			"bufferView":30,
			"componentType":5126,
			"count":4,
			"type":"VEC3"
		},
		{
			"bufferView":31,
			"componentType":5126,
			"count":4,
			"type":"VEC2"
		},
		{
			"bufferView":32,
			"componentType":5126,
			"count":4,
			"type":"VEC4"
		},
		{
			"bufferView":33,
			"componentType":5123,
			"count":6,
			"type":"SCALAR"
		},
		{
			"bufferView":34,
			"componentType":5126,
			"count":86,
			"max":[
				5.0579633712768555,
				4.582651138305664,
				4.784768104553223
			],
			"min":[
				3.9573400020599365,
				0.36231374740600586,
				4.623586654663086
			],
			"type":"VEC3"
		},
		{
			"bufferView":35,
			"componentType":5126,
			"count":86,
			"type":"VEC3"
		},
		{
			"bufferView":36,
			"componentType":5126,
			"count":86,
			"type":"VEC2"
		},
		{
			"bufferView":37,
			"componentType":5126,
			"count":86,
			"type":"VEC4"
		},
		{
			"bufferView":38,
			"componentType":5123,
			"count":396,
			"type":"SCALAR"
		},
		{
			"bufferView":39,
			"componentType":5126,
			"count":962,
			"max":[
				5.058507919311523,
				4.58060359954834,
				4.779471397399902
			],
			"min":[
				3.9572014808654785,
				0.3584219813346863,
				3.669363021850586
			],
			"type":"VEC3"
		},
		{
			"bufferView":40,
			"componentType":5126,
			"count":962,
			"type":"VEC3"
		},
		{
			"bufferView":41,
			"componentType":5126,
			"count":962,
			"type":"VEC2"
		},
		{
			"bufferView":42,
			"componentType":5126,
			"count":962,
			"type":"VEC4"
		},
		{
			"bufferView":43,
			"componentType":5123,
			"count":5184,
			"type":"SCALAR"
		},
		{
			"bufferView":44,
			"componentType":5126,
			"count":52,
			"max":[
				4.755837917327881,
				0.5104485750198364,
				4.779471397399902
			],
			"min":[
				4.5754194259643555,
				0.3576831817626953,
				3.669363021850586
			],
			"type":"VEC3"
		},
		{
			"bufferView":45,
			"componentType":5126,
			"count":52,
			"type":"VEC3"
		},
		{
			"bufferView":46,
			"componentType":5126,
			"count":52,
			"type":"VEC2"
		},
		{
			"bufferView":47,
			"componentType":5126,
			"count":52,
			"type":"VEC4"
		},
		{
			"bufferView":48,
			"componentType":5123,
			"count":144,
			"type":"SCALAR"
		},
		{
			"bufferView":49,
			"componentType":5126,
			"count":252,
			"max":[
				4.0518975257873535,
				3.4928739070892334,
				4.674099922180176
			],
			"min":[
				3.9970924854278564,
				0.9698789119720459,
				4.617885589599609
			],
			"type":"VEC3"
		},
		{
			"bufferView":50,
			"componentType":5126,
			"count":252,
			"type":"VEC3"
		},
		{
			"bufferView":51,
			"componentType":5126,
			"count":252,
			"type":"VEC2"
		},
		{
			"bufferView":52,
			"componentType":5123,
			"count":432,
			"type":"SCALAR"
		},
		{
			"bufferView":53,
			"componentType":5126,
			"count":912,
			"max":[
				4.155344486236572,
				3.5080952644348145,
				4.81810188293457
			],
			"min":[
				3.9069008827209473,
				0.9533734321594238,
				4.691356658935547
			],
			"type":"VEC3"
		},
		{
			"bufferView":54,
			"componentType":5126,
			"count":912,
			"type":"VEC3"
		},
		{
			"bufferView":55,
			"componentType":5126,
			"count":912,
			"type":"VEC2"
		},
		{
			"bufferView":56,
			"componentType":5123,
			"count":1368,
			"type":"SCALAR"
		},
		{
			"bufferView":57,
			"componentType":5126,
			"count":540,
			"max":[
				4.136666774749756,
				3.493232250213623,
				5.743972301483154
			],
			"min":[
				3.923710346221924,
				0.9648337364196777,
				4.798133373260498
			],
			"type":"VEC3"
		},
		{
			"bufferView":58,
			"componentType":5126,
			"count":540,
			"type":"VEC3"
		},
		{
			"bufferView":59,
			"componentType":5126,
			"count":540,
			"type":"VEC2"
		},
		{
			"bufferView":60,
			"componentType":5123,
			"count":936,
			"type":"SCALAR"
		},
		{
			"bufferView":61,
			"componentType":5126,
			"count":912,
			"max":[
				4.155344486236572,
				3.5080952644348145,
				5.670501232147217
			],
			"min":[
				3.9069008827209473,
				0.9533734321594238,
				5.543756008148193
			],
			"type":"VEC3"
		},
		{
			"bufferView":62,
			"componentType":5126,
			"count":912,
			"type":"VEC3"
		},
		{
			"bufferView":63,
			"componentType":5126,
			"count":912,
			"type":"VEC2"
		}
	],
	"bufferViews":[
		{
			"buffer":0,
			"byteLength":576,
			"byteOffset":0,
			"target":34962
		},
		{
			"buffer":0,
			"byteLength":576,
			"byteOffset":576,
			"target":34962
		},
		{
			"buffer":0,
			"byteLength":384,
			"byteOffset":1152,
			"target":34962
		},
		{
			"buffer":0,
			"byteLength":768,
			"byteOffset":1536,
			"target":34962
		},
		{
			"buffer":0,
			"byteLength":240,
			"byteOffset":2304,
			"target":34963
		},
		{
			"buffer":0,
			"byteLength":6144,
			"byteOffset":2544,
			"target":34962
		},
		{
			"buffer":0,
			"byteLength":6144,
			"byteOffset":8688,
			"target":34962
		},
		{
			"buffer":0,
			"byteLength":4096,
			"byteOffset":14832,
			"target":34962
		},
		{
			"buffer":0,
			"byteLength":1536,
			"byteOffset":18928,
			"target":34963
		},
		{
			"buffer":0,
			"byteLength":384,
			"byteOffset":20464,
			"target":34962
		},
		{
			"buffer":0,
			"byteLength":384,
			"byteOffset":20848,
			"target":34962
		},
		{
			"buffer":0,
			"byteLength":256,
			"byteOffset":21232,
			"target":34962
		},
		{
			"buffer":0,
			"byteLength":180,
			"byteOffset":21488,
			"target":34963
		},
		{
			"buffer":0,
			"byteLength":1032,
			"byteOffset":21668,
			"target":34962
		},
		{
			"buffer":0,
			"byteLength":1032,
			"byteOffset":22700,
			"target":34962
		},
		{
			"buffer":0,
			"byteLength":688,
			"byteOffset":23732,
			"target":34962
		},
		{
			"buffer":0,
			"byteLength":1376,
			"byteOffset":24420,
			"target":34962
		},
		{
			"buffer":0,
			"byteLength":792,
			"byteOffset":25796,
			"target":34963
		},
		{
			"buffer":0,
			"byteLength":864,
			"byteOffset":26588,
			"target":34962
		},
		{
			"buffer":0,
			"byteLength":864,
			"byteOffset":27452,
			"target":34962
		},
		{
			"buffer":0,
			"byteLength":576,
			"byteOffset":28316,
			"target":34962
		},
		{
			"buffer":0,
			"byteLength":1152,
			"byteOffset":28892,
			"target":34962
		},
		{
			"buffer":0,
			"byteLength":216,
			"byteOffset":30044,
			"target":34963
		},
		{
			"buffer":0,
			"byteLength":288,
			"byteOffset":30260,
			"target":34962
		},
		{
			"buffer":0,
			"byteLength":288,
			"byteOffset":30548,
			"target":34962
		},
		{
			"buffer":0,
			"byteLength":192,
			"byteOffset":30836,
			"target":34962
		},
		{
			"buffer":0,
			"byteLength":384,
			"byteOffset":31028,
			"target":34962
		},
		{
			"buffer":0,
			"byteLength":288,
			"byteOffset":31412,
			"target":34962
		},
		{
			"buffer":0,
			"byteLength":72,
			"byteOffset":31700,
			"target":34963
		},
		{
			"buffer":0,
			"byteLength":48,
			"byteOffset":31772,
			"target":34962
		},
		{
			"buffer":0,
			"byteLength":48,
			"byteOffset":31820,
			"target":34962
		},
		{
			"buffer":0,
			"byteLength":32,
			"byteOffset":31868,
			"target":34962
		},
		{
			"buffer":0,
			"byteLength":64,
			"byteOffset":31900,
			"target":34962
		},
		{
			"buffer":0,
			"byteLength":12,
			"byteOffset":31964,
			"target":34963
		},
		{
			"buffer":0,
			"byteLength":1032,
			"byteOffset":31976,
			"target":34962
		},
		{
			"buffer":0,
			"byteLength":1032,
			"byteOffset":33008,
			"target":34962
		},
		{
			"buffer":0,
			"byteLength":688,
			"byteOffset":34040,
			"target":34962
		},
		{
			"buffer":0,
			"byteLength":1376,
			"byteOffset":34728,
			"target":34962
		},
		{
			"buffer":0,
			"byteLength":792,
			"byteOffset":36104,
			"target":34963
		},
		{
			"buffer":0,
			"byteLength":11544,
			"byteOffset":36896,
			"target":34962
		},
		{
			"buffer":0,
			"byteLength":11544,
			"byteOffset":48440,
			"target":34962
		},
		{
			"buffer":0,
			"byteLength":7696,
			"byteOffset":59984,
			"target":34962
		},
		{
			"buffer":0,
			"byteLength":15392,
			"byteOffset":67680,
			"target":34962
		},
		{
			"buffer":0,
			"byteLength":10368,
			"byteOffset":83072,
			"target":34963
		},
		{
			"buffer":0,
			"byteLength":624,
			"byteOffset":93440,
			"target":34962
		},
		{
			"buffer":0,
			"byteLength":624,
			"byteOffset":94064,
			"target":34962
		},
		{
			"buffer":0,
			"byteLength":416,
			"byteOffset":94688,
			"target":34962
		},
		{
			"buffer":0,
			"byteLength":832,
			"byteOffset":95104,
			"target":34962
		},
		{
			"buffer":0,
			"byteLength":288,
			"byteOffset":95936,
			"target":34963
		},
		{
			"buffer":0,
			"byteLength":3024,
			"byteOffset":96224,
			"target":34962
		},
		{
			"buffer":0,
			"byteLength":3024,
			"byteOffset":99248,
			"target":34962
		},
		{
			"buffer":0,
			"byteLength":2016,
			"byteOffset":102272,
			"target":34962
		},
		{
			"buffer":0,
			"byteLength":864,
			"byteOffset":104288,
			"target":34963
		},
		{
			"buffer":0,
			"byteLength":10944,
			"byteOffset":105152,
			"target":34962
		},
		{
			"buffer":0,
			"byteLength":10944,
			"byteOffset":116096,
			"target":34962
		},
		{
			"buffer":0,
			"byteLength":7296,
			"byteOffset":127040,
			"target":34962
		},
		{
			"buffer":0,
			"byteLength":2736,
			"byteOffset":134336,
			"target":34963
		},
		{
			"buffer":0,
			"byteLength":6480,
			"byteOffset":137072,
			"target":34962
		},
		{
			"buffer":0,
			"byteLength":6480,
			"byteOffset":143552,
			"target":34962
		},
		{
			"buffer":0,
			"byteLength":4320,
			"byteOffset":150032,
			"target":34962
		},
		{
			"buffer":0,
			"byteLength":1872,
			"byteOffset":154352,
			"target":34963
		},
		{
			"buffer":0,
			"byteLength":10944,
			"byteOffset":156224,
			"target":34962
		},
		{
			"buffer":0,
			"byteLength":10944,
			"byteOffset":167168,
			"target":34962
		},
		{
			"buffer":0,
			"byteLength":7296,
			"byteOffset":178112,
			"target":34962
		}
	],
	"samplers":[
		{
			"magFilter":9729,
			"minFilter":9987
		}
	],
	"buffers":[
		{
			"byteLength":185408,
			"uri":"pool-4cc68e1d6221be34ee02eec0505ef329.bin"
		}
	]
}
